<svg width="57" height="50" viewBox="0 0 57 50" fill="none" xmlns="http://www.w3.org/2000/svg">
<g filter="url(#filter0_d_272_392)">
<mask id="path-1-outside-1_272_392" maskUnits="userSpaceOnUse" x="7" y="1" width="43" height="36" fill="black">
<rect fill="white" x="7" y="1" width="43" height="36"/>
<path d="M33.6383 16.3286L24.5967 24.7127L32.056 31.807H33.6383L42.0017 22.9929L33.6383 16.3286Z"/>
<path d="M46.2965 24.0678C46.2965 24.0678 46.0472 25.3774 45.3923 26.0026C44.7374 26.6279 41.9295 28.1561 41.1906 29.7283C40.3403 31.5377 41.1124 33.6319 42.9118 34.3968C44.7112 35.1618 46.867 34.3121 47.7173 32.5028C48.4562 30.9305 47.5352 27.3377 47.343 26.6335L46.2965 24.0678ZM43.6584 32.8085C42.7799 32.435 42.4221 31.3718 42.8608 30.4383C43.1328 29.8594 44.5527 28.9015 45.8352 28.1771C46.1235 29.5682 46.3199 31.2125 46.0472 31.7929C45.6085 32.7263 44.5369 33.1819 43.6584 32.8085ZM34.0744 12.2035L30.9886 15.2338L28.1763 12.4187L26.85 13.6174L29.7148 16.4848L22.9382 23.1391C22.4327 23.6367 22.1553 24.3047 22.167 24.9965C22.1786 25.6883 22.4783 26.3475 23.0003 26.8295L31.0727 34.2649C31.3316 34.5033 31.6373 34.6909 31.9724 34.817C32.3075 34.9431 32.6654 35.0051 33.0257 34.9997C33.386 34.9942 33.7417 34.9213 34.0723 34.7851C34.403 34.6488 34.7023 34.452 34.953 34.2058L46.0891 23.2703L34.0744 12.2035ZM33.6393 32.9956C33.5557 33.0777 33.456 33.1433 33.3458 33.1887C33.2355 33.2341 33.117 33.2584 32.9969 33.2602C32.8768 33.262 32.7574 33.2414 32.6458 33.1993C32.5341 33.1573 32.4322 33.0948 32.3459 33.0153L24.2732 25.5798C24.0989 25.4192 23.9989 25.1995 23.995 24.9688C23.9911 24.7381 24.0837 24.5154 24.2525 24.3497L26.1804 22.4564L38.8758 27.8531L33.6393 32.9956ZM27.5347 21.1264L30.9761 17.7469L32.5234 19.2956C32.4148 19.6742 32.4411 20.0763 32.5983 20.4391C32.7555 20.8019 33.0347 21.1049 33.3922 21.3007C33.7497 21.4966 34.1654 21.5743 34.5742 21.5216C34.983 21.469 35.362 21.2889 35.6519 21.0097C35.9417 20.7304 36.1261 20.3677 36.1761 19.9782C36.2262 19.5887 36.1391 19.1944 35.9285 18.857C35.718 18.5195 35.3958 18.258 35.0123 18.1132C34.6288 17.9684 34.2057 17.9486 33.8092 18.0568L32.2499 16.496L34.1157 14.6638L43.5023 23.3096L40.1784 26.5737L40.2069 26.5132L27.5347 21.1264Z"/>
<path d="M9 3L9.06179 20.6282L14.2688 15.0416L22.1103 15.4757L9 3Z"/>
</mask>
<path d="M33.6383 16.3286L24.5967 24.7127L32.056 31.807H33.6383L42.0017 22.9929L33.6383 16.3286Z" fill="url(#paint0_linear_272_392)"/>
<path d="M46.2965 24.0678C46.2965 24.0678 46.0472 25.3774 45.3923 26.0026C44.7374 26.6279 41.9295 28.1561 41.1906 29.7283C40.3403 31.5377 41.1124 33.6319 42.9118 34.3968C44.7112 35.1618 46.867 34.3121 47.7173 32.5028C48.4562 30.9305 47.5352 27.3377 47.343 26.6335L46.2965 24.0678ZM43.6584 32.8085C42.7799 32.435 42.4221 31.3718 42.8608 30.4383C43.1328 29.8594 44.5527 28.9015 45.8352 28.1771C46.1235 29.5682 46.3199 31.2125 46.0472 31.7929C45.6085 32.7263 44.5369 33.1819 43.6584 32.8085ZM34.0744 12.2035L30.9886 15.2338L28.1763 12.4187L26.85 13.6174L29.7148 16.4848L22.9382 23.1391C22.4327 23.6367 22.1553 24.3047 22.167 24.9965C22.1786 25.6883 22.4783 26.3475 23.0003 26.8295L31.0727 34.2649C31.3316 34.5033 31.6373 34.6909 31.9724 34.817C32.3075 34.9431 32.6654 35.0051 33.0257 34.9997C33.386 34.9942 33.7417 34.9213 34.0723 34.7851C34.403 34.6488 34.7023 34.452 34.953 34.2058L46.0891 23.2703L34.0744 12.2035ZM33.6393 32.9956C33.5557 33.0777 33.456 33.1433 33.3458 33.1887C33.2355 33.2341 33.117 33.2584 32.9969 33.2602C32.8768 33.262 32.7574 33.2414 32.6458 33.1993C32.5341 33.1573 32.4322 33.0948 32.3459 33.0153L24.2732 25.5798C24.0989 25.4192 23.9989 25.1995 23.995 24.9688C23.9911 24.7381 24.0837 24.5154 24.2525 24.3497L26.1804 22.4564L38.8758 27.8531L33.6393 32.9956ZM27.5347 21.1264L30.9761 17.7469L32.5234 19.2956C32.4148 19.6742 32.4411 20.0763 32.5983 20.4391C32.7555 20.8019 33.0347 21.1049 33.3922 21.3007C33.7497 21.4966 34.1654 21.5743 34.5742 21.5216C34.983 21.469 35.362 21.2889 35.6519 21.0097C35.9417 20.7304 36.1261 20.3677 36.1761 19.9782C36.2262 19.5887 36.1391 19.1944 35.9285 18.857C35.718 18.5195 35.3958 18.258 35.0123 18.1132C34.6288 17.9684 34.2057 17.9486 33.8092 18.0568L32.2499 16.496L34.1157 14.6638L43.5023 23.3096L40.1784 26.5737L40.2069 26.5132L27.5347 21.1264Z" fill="black"/>
<path d="M9 3L9.06179 20.6282L14.2688 15.0416L22.1103 15.4757L9 3Z" fill="black"/>
<path d="M38.8758 27.8531L38.1664 27.1484C37.7788 27.5385 37.779 28.1683 38.1667 28.5582C38.5544 28.9481 39.1842 28.9519 39.5765 28.5665L38.8758 27.8531ZM39.5765 28.5665L40.8791 27.2871L39.4777 25.8603L38.1751 27.1397L39.5765 28.5665ZM26.881 23.1699L28.2354 21.8399L26.8341 20.4129L25.4797 21.7429L26.881 23.1699ZM39.5853 28.5579L40.9163 27.2179L39.4974 25.8084L38.1664 27.1484L39.5853 28.5579ZM24.5967 24.7127L23.2368 23.2462L21.6752 24.6943L23.2184 26.162L24.5967 24.7127ZM33.6383 16.3286L34.8846 14.7645L33.5395 13.6926L32.2784 14.8621L33.6383 16.3286ZM42.0017 22.9929L43.4525 24.3696L44.9535 22.7877L43.2481 21.4288L42.0017 22.9929ZM33.6383 31.807V33.807H34.4976L35.0891 33.1837L33.6383 31.807ZM32.056 31.807L30.6777 33.2562L31.2568 33.807H32.056V31.807ZM46.2965 24.0678L48.1483 23.3124C47.8137 22.4921 46.9792 21.9896 46.0976 22.0777C45.216 22.1658 44.4974 22.8235 44.3317 23.6939L46.2965 24.0678ZM41.1906 29.7283L43.0007 30.579L41.1906 29.7283ZM47.7173 32.5028L49.5274 33.3534L47.7173 32.5028ZM47.343 26.6335L49.2724 26.1069C49.2512 26.0292 49.2253 25.9527 49.1948 25.8781L47.343 26.6335ZM42.8608 30.4383L41.0507 29.5877L41.0507 29.5877L42.8608 30.4383ZM45.8352 28.1771L47.7936 27.7713C47.664 27.146 47.2436 26.6201 46.662 26.3561C46.0805 26.092 45.4078 26.1216 44.8517 26.4357L45.8352 28.1771ZM46.0472 31.7929L44.2371 30.9422L44.2371 30.9422L46.0472 31.7929ZM34.0744 12.2035L35.4294 10.7325C34.6456 10.0105 33.4334 10.0299 32.6731 10.7765L34.0744 12.2035ZM30.9886 15.2338L29.5738 16.6473C30.3497 17.424 31.6067 17.43 32.39 16.6608L30.9886 15.2338ZM28.1763 12.4187L29.5912 11.0051C28.8379 10.2512 27.6259 10.2203 26.8352 10.9349L28.1763 12.4187ZM26.85 13.6174L25.5089 12.1336C25.1025 12.5009 24.8646 13.0188 24.8506 13.5665C24.8367 14.1141 25.0479 14.6434 25.4351 15.031L26.85 13.6174ZM29.7148 16.4848L31.1161 17.9119C31.4967 17.5381 31.7122 17.0278 31.7148 16.4944C31.7173 15.961 31.5067 15.4486 31.1296 15.0713L29.7148 16.4848ZM22.9382 23.1391L21.5369 21.7121L21.5352 21.7137L22.9382 23.1391ZM23.0003 26.8295L21.6437 28.299L21.6454 28.3005L23.0003 26.8295ZM31.0727 34.2649L32.4278 32.7938L32.4277 32.7938L31.0727 34.2649ZM34.953 34.2058L33.5517 32.7788L33.5516 32.7789L34.953 34.2058ZM46.0891 23.2703L47.4904 24.6973C47.8813 24.3135 48.0976 23.7861 48.0889 23.2383C48.0801 22.6906 47.847 22.1704 47.4441 21.7992L46.0891 23.2703ZM33.6393 32.9956L32.238 31.5686L32.2379 31.5686L33.6393 32.9956ZM32.3459 33.0153L33.7009 31.5443L33.7008 31.5442L32.3459 33.0153ZM24.2732 25.5798L22.9182 27.0508L22.9182 27.0508L24.2732 25.5798ZM24.2525 24.3497L22.8511 22.9227L22.8511 22.9227L24.2525 24.3497ZM26.1804 22.4564L26.9628 20.6158C26.2182 20.2993 25.3563 20.4625 24.779 21.0294L26.1804 22.4564ZM38.8758 27.8531L40.2772 29.2801C40.7537 28.8121 40.9652 28.1371 40.8409 27.4809C40.7166 26.8247 40.2729 26.2738 39.6582 26.0125L38.8758 27.8531ZM27.5347 21.1264L26.1334 19.6994C25.6569 20.1674 25.4454 20.8424 25.5697 21.4986C25.694 22.1548 26.1376 22.7057 26.7523 22.967L27.5347 21.1264ZM30.9761 17.7469L32.391 16.3333C31.615 15.5567 30.3581 15.5507 29.5748 16.3199L30.9761 17.7469ZM32.5234 19.2956L34.4458 19.8472C34.6462 19.1486 34.4519 18.3962 33.9382 17.8821L32.5234 19.2956ZM33.8092 18.0568L32.3943 19.4703C32.9018 19.9783 33.6428 20.1753 34.3356 19.9863L33.8092 18.0568ZM32.2499 16.496L30.8486 15.069C30.468 15.4428 30.2524 15.9531 30.2499 16.4865C30.2473 17.0199 30.458 17.5322 30.835 17.9096L32.2499 16.496ZM34.1157 14.6638L35.4707 13.1927C34.6869 12.4708 33.4747 12.4901 32.7144 13.2368L34.1157 14.6638ZM43.5023 23.3096L44.9036 24.7366C45.2945 24.3528 45.5108 23.8254 45.502 23.2777C45.4933 22.7299 45.2602 22.2097 44.8573 21.8386L43.5023 23.3096ZM40.1784 26.5737L38.3684 25.723C37.9565 26.5994 38.2316 27.6449 39.0214 28.205C39.8112 28.7652 40.8889 28.6791 41.5797 28.0007L40.1784 26.5737ZM40.2069 26.5132L42.0169 27.3639C42.248 26.8721 42.2691 26.3074 42.0753 25.7998C41.8814 25.2921 41.4894 24.8852 40.9893 24.6726L40.2069 26.5132ZM9 3L10.3787 1.55116C9.79832 0.998858 8.94435 0.846214 8.20856 1.16326C7.47278 1.4803 6.9972 2.20583 7.00001 3.00701L9 3ZM9.06179 20.6282L7.0618 20.6352C7.06468 21.4556 7.56834 22.1911 8.33228 22.4904C9.09621 22.7896 9.96543 22.592 10.5248 21.9918L9.06179 20.6282ZM14.2688 15.0416L14.3794 13.0446C13.7869 13.0118 13.2104 13.2438 12.8058 13.6779L14.2688 15.0416ZM22.1103 15.4757L21.9997 17.4727C22.8366 17.519 23.6136 17.0386 23.9461 16.2692C24.2787 15.4998 24.0962 14.6047 23.489 14.0269L22.1103 15.4757ZM25.9566 26.1793L34.9982 17.7951L32.2784 14.8621L23.2368 23.2462L25.9566 26.1793ZM32.3919 17.8928L40.7553 24.5571L43.2481 21.4288L34.8846 14.7645L32.3919 17.8928ZM40.5509 21.6163L32.1874 30.4304L35.0891 33.1837L43.4525 24.3696L40.5509 21.6163ZM33.6383 29.807H32.056V33.807H33.6383V29.807ZM33.4343 30.3578L25.975 23.2635L23.2184 26.162L30.6777 33.2562L33.4343 30.3578ZM46.2965 24.0678C44.3317 23.6939 44.3318 23.6935 44.3319 23.6931C44.3319 23.693 44.332 23.6926 44.332 23.6924C44.3321 23.6919 44.3322 23.6915 44.3323 23.6911C44.3324 23.6902 44.3326 23.6894 44.3327 23.6887C44.333 23.6873 44.3332 23.6861 44.3334 23.6852C44.3337 23.6835 44.3339 23.6829 44.3338 23.6834C44.3336 23.6843 44.3325 23.6894 44.3306 23.6982C44.3267 23.716 44.3194 23.748 44.3086 23.7907C44.2864 23.8782 44.2521 23.9998 44.2055 24.1308C44.0879 24.4615 43.989 24.5772 44.0112 24.556L46.7734 27.4492C47.4505 26.8028 47.8036 25.9511 47.9744 25.4707C48.072 25.1961 48.1409 24.9513 48.186 24.7737C48.2087 24.6839 48.226 24.6087 48.2383 24.5524C48.2445 24.5242 48.2494 24.5006 48.2532 24.482C48.2551 24.4727 48.2567 24.4647 48.2581 24.4579C48.2587 24.4546 48.2593 24.4515 48.2598 24.4488C48.2601 24.4475 48.2603 24.4462 48.2606 24.445C48.2607 24.4445 48.2608 24.4439 48.2609 24.4433C48.2609 24.4431 48.261 24.4427 48.261 24.4425C48.2611 24.4421 48.2612 24.4418 46.2965 24.0678ZM44.0112 24.556C44.0212 24.5465 43.9861 24.5795 43.8612 24.6724C43.7469 24.7573 43.6026 24.8592 43.4196 24.9868C43.0688 25.2313 42.5965 25.5554 42.1234 25.91C41.2684 26.5508 39.9866 27.588 39.3805 28.8777L43.0007 30.579C43.1335 30.2964 43.625 29.7834 44.5225 29.1107C44.9256 28.8085 45.3242 28.5351 45.7072 28.2681C46.0253 28.0464 46.4729 27.736 46.7734 27.4492L44.0112 24.556ZM39.3805 28.8777C38.0669 31.6729 39.2459 35.0117 42.1294 36.2374L43.6943 32.5562C42.9789 32.2521 42.6137 31.4025 43.0007 30.579L39.3805 28.8777ZM42.1294 36.2374C44.9548 37.4385 48.2365 36.1001 49.5274 33.3534L45.9072 31.6521C45.4974 32.5241 44.4677 32.885 43.6943 32.5562L42.1294 36.2374ZM49.5274 33.3534C49.8842 32.5942 49.9795 31.7529 49.9969 31.0726C50.0152 30.3582 49.9502 29.6242 49.8608 28.9714C49.6819 27.6645 49.3784 26.4953 49.2724 26.1069L45.4135 27.16C45.4998 27.4759 45.7529 28.4553 45.8978 29.5139C45.9703 30.0438 46.009 30.5469 45.9982 30.9703C45.9929 31.1796 45.9759 31.3465 45.9531 31.4727C45.9296 31.6024 45.9064 31.6539 45.9072 31.6521L49.5274 33.3534ZM49.1948 25.8781L48.1483 23.3124L44.4446 24.8232L45.4911 27.3888L49.1948 25.8781ZM44.4408 30.9679C44.5631 31.0199 44.6362 31.1212 44.6612 31.1955C44.6843 31.2644 44.6665 31.2981 44.6708 31.289L41.0507 29.5877C40.1966 31.405 40.8147 33.7729 42.8759 34.6491L44.4408 30.9679ZM44.6708 31.289C44.5776 31.4874 44.4975 31.5261 44.6402 31.39C44.7473 31.2879 44.9164 31.1475 45.151 30.9757C45.6174 30.634 46.2215 30.2559 46.8187 29.9186L44.8517 26.4357C44.1664 26.8227 43.4193 27.2858 42.7871 27.7489C42.4724 27.9794 42.1554 28.2323 41.8797 28.4953C41.6395 28.7243 41.28 29.0998 41.0507 29.5877L44.6708 31.289ZM43.8768 28.583C44.0098 29.2249 44.115 29.896 44.1576 30.4439C44.179 30.7193 44.1813 30.9245 44.1733 31.0591C44.1625 31.2394 44.1416 31.1454 44.2371 30.9422L47.8573 32.6435C48.0891 32.1502 48.146 31.633 48.1661 31.2983C48.1889 30.9179 48.1752 30.5162 48.1456 30.1342C48.086 29.367 47.9488 28.5204 47.7936 27.7713L43.8768 28.583ZM44.2371 30.9422C44.2316 30.954 44.2253 30.9544 44.2352 30.9502C44.2461 30.9455 44.3262 30.9191 44.4408 30.9679L42.8759 34.6491C44.8686 35.4961 47.0209 34.4232 47.8573 32.6435L44.2371 30.9422ZM32.6731 10.7765L29.5873 13.8068L32.39 16.6608L35.4757 13.6305L32.6731 10.7765ZM32.4035 13.8202L29.5912 11.0051L26.7614 13.8322L29.5738 16.6473L32.4035 13.8202ZM26.8352 10.9349L25.5089 12.1336L28.191 15.1012L29.5173 13.9025L26.8352 10.9349ZM25.4351 15.031L28.2999 17.8984L31.1296 15.0713L28.2648 12.2038L25.4351 15.031ZM28.3135 15.0578L21.5369 21.7121L24.3395 24.5661L31.1161 17.9119L28.3135 15.0578ZM21.5352 21.7137C20.6505 22.5846 20.1461 23.7755 20.1672 25.0302L24.1667 24.9628C24.1645 24.8339 24.2148 24.6888 24.3412 24.5645L21.5352 21.7137ZM20.1672 25.0302C20.1884 26.2847 20.7323 27.4576 21.6437 28.299L24.357 25.3599C24.2243 25.2375 24.1688 25.092 24.1667 24.9628L20.1672 25.0302ZM21.6454 28.3005L29.7178 35.7359L32.4277 32.7938L24.3553 25.3584L21.6454 28.3005ZM29.7177 35.7359C30.169 36.1516 30.6966 36.4739 31.2681 36.6889L32.6767 32.9451C32.578 32.908 32.4942 32.855 32.4278 32.7938L29.7177 35.7359ZM31.2681 36.6889C31.8395 36.9039 32.4467 37.0087 33.0561 36.9994L32.9953 32.9999C32.8841 33.0016 32.7755 32.9823 32.6767 32.9451L31.2681 36.6889ZM33.0561 36.9994C33.6655 36.9902 34.2694 36.8669 34.8341 36.6343L33.3106 32.9358C33.2139 32.9756 33.1065 32.9982 32.9953 32.9999L33.0561 36.9994ZM34.8341 36.6343C35.3988 36.4017 35.9163 36.063 36.3543 35.6328L33.5516 32.7789C33.4883 32.8411 33.4072 32.896 33.3106 32.9358L34.8341 36.6343ZM36.3543 35.6329L47.4904 24.6973L44.6878 21.8433L33.5517 32.7788L36.3543 35.6329ZM47.4441 21.7992L35.4294 10.7325L32.7194 13.6746L44.7341 24.7414L47.4441 21.7992ZM32.2379 31.5686C32.3417 31.4667 32.4602 31.3904 32.584 31.3394L34.1075 35.0379C34.4518 34.8961 34.7698 34.6886 35.0407 34.4226L32.2379 31.5686ZM32.584 31.3394C32.7078 31.2884 32.8374 31.2624 32.9664 31.2605L33.0273 35.26C33.3965 35.2544 33.7633 35.1797 34.1075 35.0379L32.584 31.3394ZM32.9664 31.2605C33.0954 31.2585 33.2254 31.2806 33.35 31.3274L31.9415 35.0712C32.2895 35.2022 32.6582 35.2656 33.0273 35.26L32.9664 31.2605ZM33.35 31.3274C33.4748 31.3744 33.5948 31.4465 33.7009 31.5443L30.9908 34.4863C31.2695 34.743 31.5933 34.9402 31.9415 35.0712L33.35 31.3274ZM33.7008 31.5442L25.6282 24.1087L22.9182 27.0508L30.9909 34.4864L33.7008 31.5442ZM25.6282 24.1087C25.8442 24.3077 25.9891 24.6023 25.9947 24.9351L21.9953 25.0025C22.0086 25.7967 22.3537 26.5308 22.9182 27.0508L25.6282 24.1087ZM25.9947 24.9351C26.0003 25.2682 25.8652 25.569 25.6538 25.7766L22.8511 22.9227C22.3022 23.4618 21.9819 24.2081 21.9953 25.0025L25.9947 24.9351ZM25.6538 25.7766L27.5817 23.8834L24.779 21.0294L22.8511 22.9227L25.6538 25.7766ZM25.398 24.297L38.0934 29.6937L39.6582 26.0125L26.9628 20.6158L25.398 24.297ZM37.4745 26.4261L32.238 31.5686L35.0406 34.4226L40.2772 29.2801L37.4745 26.4261ZM28.9361 22.5534L32.3774 19.1739L29.5748 16.3199L26.1334 19.6994L28.9361 22.5534ZM29.5612 19.1605L31.1085 20.7092L33.9382 17.8821L32.391 16.3333L29.5612 19.1605ZM30.6009 18.7441C30.364 19.57 30.4225 20.4481 30.7632 21.2342L34.4334 19.6439C34.4597 19.7045 34.4656 19.7783 34.4458 19.8472L30.6009 18.7441ZM30.7632 21.2342C31.1029 22.0183 31.6969 22.6524 32.4312 23.0547L34.3532 19.5467C34.3725 19.5573 34.4081 19.5854 34.4334 19.6439L30.7632 21.2342ZM32.4312 23.0547C33.1642 23.4563 34.0064 23.6113 34.8297 23.5052L34.3187 19.538C34.3227 19.5375 34.3268 19.5376 34.3313 19.5384C34.3358 19.5393 34.3433 19.5413 34.3532 19.5467L32.4312 23.0547ZM34.8297 23.5052C35.6534 23.3991 36.4325 23.0348 37.0395 22.4499L34.2642 19.5694C34.2916 19.543 34.3127 19.5388 34.3187 19.538L34.8297 23.5052ZM37.0395 22.4499C37.6483 21.8634 38.0502 21.0861 38.1598 20.2332L34.1924 19.7232C34.2019 19.6492 34.2351 19.5974 34.2642 19.5694L37.0395 22.4499ZM38.1598 20.2332C38.2695 19.3794 38.0768 18.5218 37.6253 17.7982L34.2318 19.9158C34.2014 19.867 34.1828 19.798 34.1924 19.7232L38.1598 20.2332ZM37.6253 17.7982C37.1751 17.0767 36.4989 16.5367 35.7188 16.2421L34.3059 19.9843C34.2926 19.9793 34.2609 19.9624 34.2318 19.9158L37.6253 17.7982ZM35.7188 16.2421C34.9395 15.9479 34.0849 15.9084 33.2827 16.1273L34.3356 19.9863C34.3299 19.9878 34.3255 19.9881 34.3219 19.9879C34.3184 19.9878 34.3131 19.987 34.3059 19.9843L35.7188 16.2421ZM35.224 16.6432L33.6647 15.0825L30.835 17.9096L32.3943 19.4703L35.224 16.6432ZM33.6512 17.923L35.517 16.0908L32.7144 13.2368L30.8486 15.069L33.6512 17.923ZM32.7608 16.1348L42.1473 24.7807L44.8573 21.8386L35.4707 13.1927L32.7608 16.1348ZM42.101 21.8826L38.7771 25.1467L41.5797 28.0007L44.9036 24.7366L42.101 21.8826ZM41.9885 27.4244L42.0169 27.3639L38.3968 25.6625L38.3684 25.723L41.9885 27.4244ZM40.9893 24.6726L28.3172 19.2858L26.7523 22.967L39.4244 28.3538L40.9893 24.6726ZM7.00001 3.00701L7.0618 20.6352L11.0618 20.6212L11 2.99299L7.00001 3.00701ZM10.5248 21.9918L15.7319 16.4052L12.8058 13.6779L7.59874 19.2645L10.5248 21.9918ZM14.1583 17.0385L21.9997 17.4727L22.2208 13.4788L14.3794 13.0446L14.1583 17.0385ZM23.489 14.0269L10.3787 1.55116L7.62128 4.44884L20.7316 16.9246L23.489 14.0269Z" fill="url(#paint1_linear_272_392)" mask="url(#path-1-outside-1_272_392)"/>
</g>
<defs>
<filter id="filter0_d_272_392" x="0.3" y="0.299939" width="56.4" height="49.4001" filterUnits="userSpaceOnUse" color-interpolation-filters="sRGB">
<feFlood flood-opacity="0" result="BackgroundImageFix"/>
<feColorMatrix in="SourceAlpha" type="matrix" values="0 0 0 0 0 0 0 0 0 0 0 0 0 0 0 0 0 0 127 0" result="hardAlpha"/>
<feOffset dy="6"/>
<feGaussianBlur stdDeviation="3.35"/>
<feComposite in2="hardAlpha" operator="out"/>
<feColorMatrix type="matrix" values="0 0 0 0 0.0141769 0 0 0 0 0.0127993 0 0 0 0 0.0816813 0 0 0 0.25 0"/>
<feBlend mode="normal" in2="BackgroundImageFix" result="effect1_dropShadow_272_392"/>
<feBlend mode="normal" in="SourceGraphic" in2="effect1_dropShadow_272_392" result="shape"/>
</filter>
<linearGradient id="paint0_linear_272_392" x1="9" y1="19" x2="48" y2="19" gradientUnits="userSpaceOnUse">
<stop stop-color="#DEE1AB"/>
<stop offset="0.5" stop-color="#C15544"/>
<stop offset="1" stop-color="#5146CF"/>
</linearGradient>
<linearGradient id="paint1_linear_272_392" x1="9" y1="19" x2="48" y2="19" gradientUnits="userSpaceOnUse">
<stop stop-color="#DEE1AB"/>
<stop offset="0.5" stop-color="#C15544"/>
<stop offset="1" stop-color="#5146CF"/>
</linearGradient>
</defs>
</svg>
