<svg width="12" height="12" viewBox="0 0 12 12" fill="none" xmlns="http://www.w3.org/2000/svg">
<path d="M5.32311 1.41852C5.59479 0.849183 6.40521 0.849184 6.67689 1.41853L7.55279 3.25411C7.66212 3.48325 7.87995 3.64151 8.13166 3.67469L10.1481 3.94049C10.7735 4.02293 11.0239 4.79369 10.5664 5.228L9.09133 6.62826C8.9072 6.80305 8.824 7.05913 8.87022 7.30876L9.24054 9.30863C9.3554 9.92892 8.69975 10.4053 8.14531 10.1044L6.35776 9.13417C6.13463 9.01307 5.86537 9.01307 5.64224 9.13417L3.85469 10.1044C3.30025 10.4053 2.6446 9.92892 2.75946 9.30863L3.12978 7.30876C3.176 7.05913 3.0928 6.80305 2.90867 6.62826L1.43359 5.228C0.976066 4.79369 1.2265 4.02293 1.85193 3.94049L3.86834 3.67469C4.12005 3.64151 4.33788 3.48325 4.44721 3.25411L5.32311 1.41852Z" fill="#FAE2AF"/>
</svg>
