<svg width="54" height="50" viewBox="0 0 54 50" fill="none" xmlns="http://www.w3.org/2000/svg">
<g filter="url(#filter0_d_272_393)">
<mask id="path-1-outside-1_272_393" maskUnits="userSpaceOnUse" x="7" y="1" width="40" height="36" fill="black">
<rect fill="white" x="7" y="1" width="40" height="36"/>
<path d="M32.1437 15.0416L23.3969 24.7127L30.2824 31.807H31.743L39.4631 22.9929L32.1437 15.0416Z"/>
<path d="M43.4275 24.0678C43.4275 24.0678 43.1974 25.3774 42.5929 26.0026C41.9884 26.6279 39.3964 28.1561 38.7144 29.7283C37.9295 31.5377 38.6422 33.6319 40.3032 34.3968C41.9642 35.1618 43.9541 34.3121 44.739 32.5028C45.4211 30.9305 44.5709 27.3377 44.3935 26.6335L43.4275 24.0678ZM40.9923 32.8085C40.1814 32.435 39.8512 31.3718 40.2561 30.4383C40.5072 29.8595 41.8179 28.9015 43.0017 28.1771C43.2678 29.5682 43.4492 31.2125 43.1974 31.7929C42.7925 32.7263 41.8032 33.1819 40.9923 32.8085ZM32.1456 12.2035L29.2972 15.2338L26.7012 12.4187L25.4769 13.6174L28.1213 16.4848L21.866 23.1391C21.3994 23.6367 21.1434 24.3047 21.1541 24.9965C21.1649 25.6883 21.4415 26.3475 21.9234 26.8295L29.3748 34.2649C29.6138 34.5033 29.896 34.6909 30.2053 34.817C30.5146 34.9431 30.845 35.0051 31.1776 34.9997C31.5102 34.9942 31.8385 34.9213 32.1437 34.7851C32.4489 34.6488 32.7252 34.452 32.9566 34.2058L43.2361 23.2703L32.1456 12.2035ZM31.744 32.9956C31.6668 33.0777 31.5748 33.1433 31.473 33.1887C31.3713 33.2341 31.2618 33.2584 31.151 33.2602C31.0401 33.262 30.93 33.2414 30.8268 33.1993C30.7237 33.1573 30.6297 33.0948 30.55 33.0153L23.0983 25.5798C22.9375 25.4192 22.8451 25.1995 22.8415 24.9688C22.8379 24.7381 22.9234 24.5154 23.0792 24.3497L24.8588 22.4564L36.5777 27.8531L31.744 32.9956ZM26.109 21.1264L29.2856 17.7469L30.7139 19.2956C30.6136 19.6742 30.638 20.0763 30.7831 20.4391C30.9282 20.8019 31.1859 21.1049 31.5159 21.3007C31.8459 21.4966 32.2296 21.5743 32.607 21.5216C32.9844 21.469 33.3342 21.2889 33.6017 21.0097C33.8693 20.7304 34.0394 20.3677 34.0856 19.9782C34.1319 19.5887 34.0515 19.1944 33.8571 18.857C33.6627 18.5195 33.3653 18.258 33.0114 18.1132C32.6574 17.9684 32.2668 17.9486 31.9008 18.0568L30.4614 16.496L32.1838 14.6638L40.8483 23.3096L37.7801 26.5737L37.8063 26.5132L26.109 21.1264Z"/>
<path d="M9 3L9.05703 20.6282L13.8635 15.0416L21.1018 15.4757L9 3Z"/>
</mask>
<path d="M32.1437 15.0416L23.3969 24.7127L30.2824 31.807H31.743L39.4631 22.9929L32.1437 15.0416Z" fill="#FAFAFA"/>
<path d="M43.4275 24.0678C43.4275 24.0678 43.1974 25.3774 42.5929 26.0026C41.9884 26.6279 39.3964 28.1561 38.7144 29.7283C37.9295 31.5377 38.6422 33.6319 40.3032 34.3968C41.9642 35.1618 43.9541 34.3121 44.739 32.5028C45.4211 30.9305 44.5709 27.3377 44.3935 26.6335L43.4275 24.0678ZM40.9923 32.8085C40.1814 32.435 39.8512 31.3718 40.2561 30.4383C40.5072 29.8595 41.8179 28.9015 43.0017 28.1771C43.2678 29.5682 43.4492 31.2125 43.1974 31.7929C42.7925 32.7263 41.8032 33.1819 40.9923 32.8085ZM32.1456 12.2035L29.2972 15.2338L26.7012 12.4187L25.4769 13.6174L28.1213 16.4848L21.866 23.1391C21.3994 23.6367 21.1434 24.3047 21.1541 24.9965C21.1649 25.6883 21.4415 26.3475 21.9234 26.8295L29.3748 34.2649C29.6138 34.5033 29.896 34.6909 30.2053 34.817C30.5146 34.9431 30.845 35.0051 31.1776 34.9997C31.5102 34.9942 31.8385 34.9213 32.1437 34.7851C32.4489 34.6488 32.7252 34.452 32.9566 34.2058L43.2361 23.2703L32.1456 12.2035ZM31.744 32.9956C31.6668 33.0777 31.5748 33.1433 31.473 33.1887C31.3713 33.2341 31.2618 33.2584 31.151 33.2602C31.0401 33.262 30.93 33.2414 30.8268 33.1993C30.7237 33.1573 30.6297 33.0948 30.55 33.0153L23.0983 25.5798C22.9375 25.4192 22.8451 25.1995 22.8415 24.9688C22.8379 24.7381 22.9234 24.5154 23.0792 24.3497L24.8588 22.4564L36.5777 27.8531L31.744 32.9956ZM26.109 21.1264L29.2856 17.7469L30.7139 19.2956C30.6136 19.6742 30.638 20.0763 30.7831 20.4391C30.9282 20.8019 31.1859 21.1049 31.5159 21.3007C31.8459 21.4966 32.2296 21.5743 32.607 21.5216C32.9844 21.469 33.3342 21.2889 33.6017 21.0097C33.8693 20.7304 34.0394 20.3677 34.0856 19.9782C34.1319 19.5887 34.0515 19.1944 33.8571 18.857C33.6627 18.5195 33.3653 18.258 33.0114 18.1132C32.6574 17.9684 32.2668 17.9486 31.9008 18.0568L30.4614 16.496L32.1838 14.6638L40.8483 23.3096L37.7801 26.5737L37.8063 26.5132L26.109 21.1264Z" fill="#151B23"/>
<path d="M9 3L9.05703 20.6282L13.8635 15.0416L21.1018 15.4757L9 3Z" fill="#151B23"/>
<path d="M36.5777 27.8531L35.8406 27.1773C35.469 27.5826 35.4943 28.2119 35.8973 28.586C36.3003 28.9601 36.9298 28.9386 37.3064 28.5379L36.5777 27.8531ZM37.3064 28.5379L38.5088 27.2585L37.0514 25.8889L35.849 27.1683L37.3064 28.5379ZM25.5874 23.1413L26.8376 21.8113L25.3804 20.4415L24.1302 21.7715L25.5874 23.1413ZM37.3147 28.529L38.5434 27.189L37.0693 25.8374L35.8406 27.1773L37.3147 28.529ZM23.3969 24.7127L21.9136 23.3712L20.6567 24.761L21.9618 26.1057L23.3969 24.7127ZM32.1437 15.0416L33.6152 13.687L32.1307 12.0743L30.6604 13.7L32.1437 15.0416ZM39.4631 22.9929L40.9676 24.3107L42.1509 22.9597L40.9346 21.6384L39.4631 22.9929ZM31.743 31.807V33.807H32.6499L33.2475 33.1248L31.743 31.807ZM30.2824 31.807L28.8473 33.2L29.4365 33.807H30.2824V31.807ZM43.4275 24.0678L45.2992 23.3631C44.9816 22.5195 44.139 21.9927 43.2416 22.0765C42.3441 22.1603 41.6136 22.834 41.4577 23.7217L43.4275 24.0678ZM38.7144 29.7283L36.8796 28.9324L36.8796 28.9324L38.7144 29.7283ZM44.739 32.5028L42.9042 31.7068L42.9042 31.7068L44.739 32.5028ZM44.3935 26.6335L46.3329 26.1449C46.3145 26.0716 46.2919 25.9995 46.2652 25.9287L44.3935 26.6335ZM40.2561 30.4383L38.4213 29.6424L38.4213 29.6424L40.2561 30.4383ZM43.0017 28.1771L44.9661 27.8014C44.8428 27.1567 44.411 26.6135 43.8106 26.348C43.2103 26.0825 42.5179 26.1285 41.958 26.4711L43.0017 28.1771ZM43.1974 31.7929L41.3626 30.9969L41.3626 30.9969L43.1974 31.7929ZM32.1456 12.2035L33.5583 10.7878C33.1755 10.4058 32.6543 10.1951 32.1136 10.2038C31.5729 10.2124 31.0587 10.4397 30.6883 10.8337L32.1456 12.2035ZM29.2972 15.2338L27.827 16.5896C28.2034 16.9978 28.7325 17.2311 29.2877 17.2337C29.8429 17.2364 30.3742 17.0081 30.7545 16.6036L29.2972 15.2338ZM26.7012 12.4187L28.1714 11.0628C27.8048 10.6653 27.2928 10.4331 26.7522 10.4193C26.2115 10.4055 25.6884 10.6113 25.3019 10.9896L26.7012 12.4187ZM25.4769 13.6174L24.0777 12.1883C23.3051 12.9448 23.2736 14.1784 24.0067 14.9733L25.4769 13.6174ZM28.1213 16.4848L29.5786 17.8547C30.2972 17.0902 30.3029 15.9003 29.5916 15.1289L28.1213 16.4848ZM21.866 23.1391L20.4088 21.7693L20.4072 21.771L21.866 23.1391ZM21.9234 26.8295L20.5091 28.2436L20.5107 28.2452L21.9234 26.8295ZM29.3748 34.2649L30.7876 32.8492L30.7875 32.8491L29.3748 34.2649ZM31.1776 34.9997L31.2105 36.9994L31.1776 34.9997ZM32.9566 34.2058L31.4993 32.836L31.4993 32.836L32.9566 34.2058ZM43.2361 23.2703L44.6934 24.6401C45.434 23.8522 45.4142 22.6184 44.6488 21.8546L43.2361 23.2703ZM31.744 32.9956L30.2867 31.6258L30.2867 31.6258L31.744 32.9956ZM30.55 33.0153L31.9628 31.5996L31.9627 31.5995L30.55 33.0153ZM23.0983 25.5798L21.6856 26.9955L21.6857 26.9955L23.0983 25.5798ZM23.0792 24.3497L21.6219 22.9799L21.6219 22.9799L23.0792 24.3497ZM24.8588 22.4564L25.6954 20.6398C24.9142 20.28 23.9905 20.46 23.4015 21.0866L24.8588 22.4564ZM36.5777 27.8531L38.035 29.2229C38.4756 28.7542 38.6638 28.1021 38.5408 27.4707C38.4178 26.8393 37.9986 26.3056 37.4143 26.0365L36.5777 27.8531ZM26.109 21.1264L24.6517 19.7566C24.2111 20.2253 24.0229 20.8774 24.1459 21.5088C24.2689 22.1402 24.6881 22.6739 25.2724 22.943L26.109 21.1264ZM29.2856 17.7469L30.7559 16.391C30.3795 15.9829 29.8503 15.7496 29.2951 15.7469C28.7399 15.7443 28.2086 15.9726 27.8283 16.3771L29.2856 17.7469ZM30.7139 19.2956L32.6472 19.8076C32.8222 19.1468 32.6476 18.4423 32.1841 17.9397L30.7139 19.2956ZM33.8571 18.857L35.5902 17.8587L33.8571 18.857ZM31.9008 18.0568L30.4305 19.4127C30.9471 19.9727 31.737 20.1907 32.4676 19.9748L31.9008 18.0568ZM30.4614 16.496L29.0042 15.1262C28.2855 15.8907 28.2799 17.0806 28.9912 17.8519L30.4614 16.496ZM32.1838 14.6638L33.5964 13.248C33.2136 12.8661 32.6925 12.6554 32.1518 12.664C31.6111 12.6727 31.0969 12.8999 30.7265 13.2939L32.1838 14.6638ZM40.8483 23.3096L42.3055 24.6794C43.0461 23.8916 43.0264 22.6577 42.2609 21.8939L40.8483 23.3096ZM37.7801 26.5737L35.9453 25.7778C35.5584 26.6695 35.8688 27.7103 36.6809 28.2446C37.493 28.7788 38.5716 28.6518 39.2373 27.9435L37.7801 26.5737ZM37.8063 26.5132L39.6411 27.3091C40.0738 26.3117 39.6304 25.1513 38.6429 24.6966L37.8063 26.5132ZM9 3L10.4356 1.60746C9.86766 1.02201 9.00113 0.840075 8.24571 1.14769C7.4903 1.45531 6.99737 2.19083 7.00001 3.00647L9 3ZM9.05703 20.6282L7.05704 20.6346C7.05975 21.4697 7.58102 22.2152 8.36444 22.5044C9.14786 22.7936 10.0285 22.5656 10.5731 21.9326L9.05703 20.6282ZM13.8635 15.0416L13.9833 13.0451C13.3599 13.0078 12.7548 13.2637 12.3474 13.7372L13.8635 15.0416ZM21.1018 15.4757L20.982 17.4721C21.8058 17.5215 22.5753 17.0599 22.9195 16.3099C23.2637 15.5599 23.1119 14.6755 22.5374 14.0832L21.1018 15.4757ZM24.8803 26.0543L33.627 16.3831L30.6604 13.7L21.9136 23.3712L24.8803 26.0543ZM30.6722 16.3961L37.9916 24.3475L40.9346 21.6384L33.6152 13.687L30.6722 16.3961ZM37.9586 21.6752L30.2385 30.4893L33.2475 33.1248L40.9676 24.3107L37.9586 21.6752ZM31.743 29.807H30.2824V33.807H31.743V29.807ZM31.7176 30.4141L24.8321 23.3198L21.9618 26.1057L28.8473 33.2L31.7176 30.4141ZM43.4275 24.0678C41.4577 23.7217 41.4577 23.7214 41.4578 23.721C41.4578 23.7209 41.4579 23.7206 41.4579 23.7204C41.458 23.7199 41.4581 23.7195 41.4581 23.7191C41.4583 23.7183 41.4584 23.7176 41.4585 23.717C41.4587 23.7157 41.4589 23.7147 41.4591 23.714C41.4593 23.7125 41.4594 23.7122 41.4592 23.713C41.4589 23.7145 41.4579 23.7202 41.4559 23.7297C41.4521 23.7488 41.4451 23.7822 41.4347 23.8265C41.4135 23.917 41.3809 24.0422 41.3366 24.1771C41.224 24.5204 41.1286 24.6397 41.1551 24.6124L44.0307 27.3928C44.6617 26.7402 44.9837 25.8922 45.1372 25.4244C45.226 25.1537 45.2886 24.9125 45.3295 24.7379C45.3502 24.6496 45.3658 24.5759 45.3769 24.5209C45.3825 24.4933 45.3869 24.4703 45.3903 24.4524C45.392 24.4434 45.3934 24.4356 45.3946 24.4292C45.3952 24.426 45.3957 24.4231 45.3961 24.4205C45.3964 24.4193 45.3966 24.4181 45.3968 24.417C45.3969 24.4164 45.397 24.4159 45.3971 24.4154C45.3971 24.4151 45.3972 24.4147 45.3972 24.4146C45.3973 24.4143 45.3973 24.4139 43.4275 24.0678ZM41.1551 24.6124C41.1684 24.5987 41.1402 24.6283 41.0265 24.7198C40.9229 24.8032 40.7912 24.904 40.6224 25.0314C40.2997 25.2752 39.8611 25.6012 39.422 25.9577C38.6222 26.6072 37.4356 27.6507 36.8796 28.9324L40.5492 30.5243C40.6752 30.2338 41.1256 29.727 41.9434 29.063C42.3132 28.7627 42.6785 28.4912 43.0331 28.2234C43.3247 28.0032 43.7467 27.6865 44.0307 27.3928L41.1551 24.6124ZM36.8796 28.9324C35.7178 31.6105 36.6954 34.9373 39.4666 36.2135L41.1398 32.5802C40.5891 32.3266 40.1411 31.4649 40.5492 30.5243L36.8796 28.9324ZM39.4666 36.2135C42.2779 37.5081 45.4021 35.9999 46.5738 33.2987L42.9042 31.7068C42.5062 32.6244 41.6506 32.8154 41.1398 32.5802L39.4666 36.2135ZM46.5738 33.2987C46.8952 32.558 46.9814 31.7378 46.9972 31.0687C47.0138 30.3655 46.9547 29.6403 46.8728 28.9919C46.7088 27.6939 46.4302 26.5312 46.3329 26.1449L42.4541 27.122C42.5342 27.44 42.7695 28.4258 42.9044 29.4934C42.9719 30.0277 43.0086 30.5396 42.9983 30.9742C42.9932 31.1894 42.977 31.3641 42.9545 31.4993C42.9435 31.5656 42.9319 31.6161 42.9218 31.6526C42.9168 31.6706 42.9125 31.684 42.9093 31.6932C42.9061 31.7025 42.9042 31.7069 42.9042 31.7068L46.5738 33.2987ZM46.2652 25.9287L45.2992 23.3631L41.5558 24.7726L42.5218 27.3382L46.2652 25.9287ZM41.8289 30.9918C42.0069 31.0738 42.0671 31.2041 42.0782 31.2401C42.0887 31.2737 42.0765 31.2673 42.0909 31.2343L38.4213 29.6424C37.6814 31.348 38.1484 33.7007 40.1558 34.6251L41.8289 30.9918ZM42.0909 31.2343C42.0086 31.424 41.936 31.4634 42.0616 31.3337C42.1568 31.2353 42.309 31.0982 42.5224 30.9289C42.947 30.5919 43.4987 30.2177 44.0455 29.8832L41.958 26.4711C41.3209 26.8609 40.6253 27.3278 40.0358 27.7957C39.7422 28.0287 39.4456 28.285 39.1875 28.5517C38.9597 28.787 38.6292 29.1632 38.4213 29.6424L42.0909 31.2343ZM41.0374 28.5529C41.1608 29.1984 41.259 29.8759 41.2989 30.432C41.3189 30.7115 41.3215 30.9243 41.3135 31.0682C41.3031 31.257 41.2821 31.1826 41.3626 30.9969L45.0322 32.5888C45.2386 32.113 45.2894 31.6154 45.3074 31.2891C45.3279 30.9181 45.3157 30.524 45.2886 30.146C45.2342 29.3871 45.1087 28.5469 44.9661 27.8014L41.0374 28.5529ZM41.3626 30.9969C41.3487 31.029 41.3465 31.0036 41.4105 30.9741C41.4809 30.9417 41.6451 30.9072 41.8289 30.9918L40.1558 34.6251C42.209 35.5706 44.2851 34.3109 45.0322 32.5888L41.3626 30.9969ZM30.6883 10.8337L27.8399 13.864L30.7545 16.6036L33.6028 13.5733L30.6883 10.8337ZM30.7675 13.8779L28.1714 11.0628L25.2309 13.7745L27.827 16.5896L30.7675 13.8779ZM25.3019 10.9896L24.0777 12.1883L26.8761 15.0464L28.1004 13.8477L25.3019 10.9896ZM24.0067 14.9733L26.6511 17.8407L29.5916 15.1289L26.9471 12.2615L24.0067 14.9733ZM26.6641 15.115L20.4088 21.7693L23.3233 24.509L29.5786 17.8547L26.6641 15.115ZM20.4072 21.771C19.5799 22.6531 19.1357 23.8251 19.1544 25.0276L23.1539 24.9654C23.1511 24.7842 23.2189 24.6203 23.3249 24.5072L20.4072 21.771ZM19.1544 25.0276C19.173 26.2301 19.6536 27.388 20.5091 28.2436L23.3377 25.4153C23.2295 25.3071 23.1567 25.1466 23.1539 24.9654L19.1544 25.0276ZM20.5107 28.2452L27.9622 35.6806L30.7875 32.8491L23.3361 25.4137L20.5107 28.2452ZM27.9621 35.6806C28.3871 36.1047 28.8923 36.4416 29.4504 36.6691L30.9602 32.9649C30.8996 32.9403 30.8404 32.9019 30.7876 32.8492L27.9621 35.6806ZM29.4504 36.6691C30.0086 36.8966 30.6069 37.0093 31.2105 36.9994L31.1446 32.9999C31.0831 33.001 31.0206 32.9896 30.9602 32.9649L29.4504 36.6691ZM31.2105 36.9994C31.8142 36.9894 32.4084 36.857 32.9587 36.6115L31.3287 32.9586C31.2686 32.9855 31.2062 32.9989 31.1446 32.9999L31.2105 36.9994ZM32.9587 36.6115C33.5089 36.366 34.0028 36.013 34.4138 35.5757L31.4993 32.836C31.4476 32.8911 31.389 32.9317 31.3287 32.9586L32.9587 36.6115ZM34.4138 35.5757L44.6934 24.6401L41.7789 21.9005L31.4993 32.836L34.4138 35.5757ZM44.6488 21.8546L33.5583 10.7878L30.7329 13.6193L41.8234 24.686L44.6488 21.8546ZM30.2867 31.6258C30.3892 31.5168 30.5148 31.4262 30.658 31.3623L32.288 35.0151C32.6347 34.8604 32.9445 34.6386 33.2013 34.3654L30.2867 31.6258ZM30.658 31.3623C30.8014 31.2983 30.9578 31.2631 31.118 31.2605L31.1839 35.2599C31.5658 35.2537 31.9411 35.1699 32.288 35.0151L30.658 31.3623ZM31.118 31.2605C31.2781 31.2579 31.4359 31.2878 31.5817 31.3473L30.072 35.0514C30.424 35.1949 30.8021 35.2662 31.1839 35.2599L31.118 31.2605ZM31.5817 31.3473C31.7274 31.4067 31.8564 31.4934 31.9628 31.5996L29.1373 34.431C29.403 34.6961 29.72 34.908 30.072 35.0514L31.5817 31.3473ZM31.9627 31.5995L24.511 24.164L21.6857 26.9955L29.1374 34.431L31.9627 31.5995ZM24.511 24.164C24.7248 24.3773 24.8369 24.6569 24.8413 24.9377L20.8417 24.9999C20.8533 25.742 21.1502 26.4612 21.6856 26.9955L24.511 24.164ZM24.8413 24.9377C24.8456 25.2184 24.7424 25.5004 24.5365 25.7194L21.6219 22.9799C21.1045 23.5304 20.8302 24.2578 20.8417 24.9999L24.8413 24.9377ZM24.5365 25.7195L26.3161 23.8262L23.4015 21.0866L21.6219 22.9799L24.5365 25.7195ZM24.0222 24.273L35.7411 29.6697L37.4143 26.0365L25.6954 20.6398L24.0222 24.273ZM35.1204 26.4833L30.2867 31.6258L33.2012 34.3654L38.035 29.2229L35.1204 26.4833ZM27.5663 22.4962L30.7429 19.1167L27.8283 16.3771L24.6517 19.7566L27.5663 22.4962ZM27.8154 19.1028L29.2436 20.6515L32.1841 17.9397L30.7559 16.391L27.8154 19.1028ZM28.7805 18.7836C28.5705 19.5768 28.6209 20.4189 28.9261 21.1818L32.64 19.6963C32.655 19.7337 32.6568 19.7716 32.6472 19.8076L28.7805 18.7836ZM28.9261 21.1818C29.2315 21.9454 29.779 22.5956 30.4951 23.0206L32.5367 19.5809C32.5927 19.6142 32.6248 19.6583 32.64 19.6963L28.9261 21.1818ZM30.4951 23.0206C31.2123 23.4463 32.053 23.6183 32.8834 23.5024L32.3305 19.5408C32.4061 19.5303 32.4794 19.5469 32.5367 19.5809L30.4951 23.0206ZM32.8834 23.5024C33.7132 23.3866 34.4723 22.9919 35.0459 22.3933L32.1575 19.6261C32.196 19.5859 32.2555 19.5513 32.3305 19.5408L32.8834 23.5024ZM35.0459 22.3933C35.6185 21.7956 35.9751 21.0281 36.0717 20.2138L32.0996 19.7425C32.1038 19.7073 32.12 19.6652 32.1575 19.6261L35.0459 22.3933ZM36.0717 20.2138C36.1683 19.3998 36.0012 18.5723 35.5902 17.8587L32.1241 19.8553C32.1017 19.8165 32.0954 19.7776 32.0996 19.7425L36.0717 20.2138ZM35.5902 17.8587C35.1786 17.1441 34.5415 16.5782 33.7685 16.2621L32.2542 19.9643C32.1892 19.9377 32.1469 19.895 32.1241 19.8553L35.5902 17.8587ZM33.7685 16.2621C32.9945 15.9455 32.1369 15.9014 31.3339 16.1388L32.4676 19.9748C32.3967 19.9957 32.3203 19.9914 32.2542 19.9643L33.7685 16.2621ZM33.371 16.7009L31.9316 15.1402L28.9912 17.8519L30.4305 19.4127L33.371 16.7009ZM31.9187 17.8659L33.641 16.0336L30.7265 13.2939L29.0042 15.1262L31.9187 17.8659ZM30.7711 16.0795L39.4356 24.7254L42.2609 21.8939L33.5964 13.248L30.7711 16.0795ZM39.391 21.9398L36.3228 25.2039L39.2373 27.9435L42.3055 24.6794L39.391 21.9398ZM39.6149 27.3696L39.6411 27.3091L35.9715 25.7172L35.9453 25.7778L39.6149 27.3696ZM38.6429 24.6966L26.9456 19.3098L25.2724 22.943L36.9697 28.3298L38.6429 24.6966ZM7.00001 3.00647L7.05704 20.6346L11.057 20.6217L11 2.99353L7.00001 3.00647ZM10.5731 21.9326L15.3796 16.3459L12.3474 13.7372L7.54093 19.3238L10.5731 21.9326ZM13.7438 17.038L20.982 17.4721L21.2215 13.4793L13.9833 13.0451L13.7438 17.038ZM22.5374 14.0832L10.4356 1.60746L7.56444 4.39254L19.6662 16.8683L22.5374 14.0832Z" fill="#FAFAFA" mask="url(#path-1-outside-1_272_393)"/>
</g>
<defs>
<filter id="filter0_d_272_393" x="0.3" y="0.299939" width="53.4" height="49.4001" filterUnits="userSpaceOnUse" color-interpolation-filters="sRGB">
<feFlood flood-opacity="0" result="BackgroundImageFix"/>
<feColorMatrix in="SourceAlpha" type="matrix" values="0 0 0 0 0 0 0 0 0 0 0 0 0 0 0 0 0 0 127 0" result="hardAlpha"/>
<feOffset dy="6"/>
<feGaussianBlur stdDeviation="3.35"/>
<feComposite in2="hardAlpha" operator="out"/>
<feColorMatrix type="matrix" values="0 0 0 0 0.0141769 0 0 0 0 0.0127993 0 0 0 0 0.0816813 0 0 0 0.25 0"/>
<feBlend mode="normal" in2="BackgroundImageFix" result="effect1_dropShadow_272_393"/>
<feBlend mode="normal" in="SourceGraphic" in2="effect1_dropShadow_272_393" result="shape"/>
</filter>
</defs>
</svg>
