<svg width="517" height="411" viewBox="0 0 517 411" fill="none" xmlns="http://www.w3.org/2000/svg">
<circle cx="195.446" cy="69.446" r="14" transform="rotate(105.407 195.446 69.446)" stroke="url(#paint0_linear_23_8)" stroke-width="2"/>
<circle cx="196.828" cy="51.8274" r="7.80473" transform="rotate(105.407 196.828 51.8274)" stroke="url(#paint1_linear_23_8)" stroke-width="2"/>
<circle cx="138.828" cy="43.8274" r="7.80473" transform="rotate(105.407 138.828 43.8274)" stroke="url(#paint2_linear_23_8)" stroke-width="2"/>
<circle cx="378.828" cy="62.8274" r="7.80473" transform="rotate(105.407 378.828 62.8274)" stroke="url(#paint3_linear_23_8)" stroke-width="2"/>
<circle cx="367.881" cy="72.0933" r="10.2878" transform="rotate(105.407 367.881 72.0933)" stroke="url(#paint4_linear_23_8)" stroke-width="2"/>
<circle cx="499.828" cy="234.827" r="7.80473" transform="rotate(105.407 499.828 234.827)" stroke="url(#paint5_linear_23_8)" stroke-width="2"/>
<circle cx="97.8276" cy="373.827" r="7.80473" transform="rotate(105.407 97.8276 373.827)" stroke="url(#paint6_linear_23_8)" stroke-width="2"/>
<circle cx="40.8276" cy="205.827" r="7.80473" transform="rotate(105.407 40.8276 205.827)" stroke="url(#paint7_linear_23_8)" stroke-width="2"/>
<circle cx="52.3961" cy="217.396" r="15.0739" transform="rotate(154.741 52.3961 217.396)" stroke="url(#paint8_linear_23_8)" stroke-width="2"/>
<circle cx="71.3961" cy="389.396" r="15.0739" transform="rotate(154.741 71.3961 389.396)" stroke="url(#paint9_linear_23_8)" stroke-width="2"/>
<circle cx="421.869" cy="199.798" r="4.50317" transform="rotate(154.741 421.869 199.798)" fill="url(#paint10_linear_23_8)"/>
<circle cx="479.994" cy="252.994" r="4.50317" transform="rotate(154.741 479.994 252.994)" fill="url(#paint11_linear_23_8)"/>
<circle cx="283.994" cy="49.9942" r="4.50317" transform="rotate(154.741 283.994 49.9942)" fill="url(#paint12_linear_23_8)"/>
<circle cx="27.9941" cy="249.994" r="4.50317" transform="rotate(154.741 27.9941 249.994)" fill="url(#paint13_linear_23_8)"/>
<circle cx="142.216" cy="53.4177" r="5.85403" transform="rotate(154.741 142.216 53.4177)" fill="url(#paint14_linear_23_8)"/>
<circle cx="80.9941" cy="361.994" r="4.50317" transform="rotate(154.741 80.9941 361.994)" fill="url(#paint15_linear_23_8)"/>
<circle cx="469.652" cy="134.652" r="5.49982" transform="rotate(-113.551 469.652 134.652)" stroke="url(#paint16_linear_23_8)" stroke-width="2"/>
<path d="M88.0188 245.405C90.6681 240.217 97.7981 239.509 101.415 244.077L116.813 263.519C118.057 265.09 119.846 266.137 121.826 266.452L146.318 270.353C152.072 271.269 154.948 277.831 151.722 282.683L137.989 303.334C136.879 305.004 136.436 307.029 136.748 309.009L140.607 333.507C141.514 339.263 136.161 344.026 130.55 342.457L106.666 335.778C104.735 335.238 102.673 335.443 100.886 336.351L78.7787 347.592C73.5854 350.233 67.4014 346.614 67.1597 340.793L66.1308 316.014C66.0476 314.011 65.2155 312.112 63.7992 310.694L46.2772 293.142C42.1609 289.019 43.6916 282.019 49.1531 279.991L72.4017 271.355C74.2809 270.657 75.8295 269.279 76.741 267.494L88.0188 245.405Z" fill="url(#paint17_linear_23_8)"/>
<path d="M371.801 104.091C373.711 101.891 377.256 102.406 378.463 105.057L385.033 119.503C385.448 120.415 386.19 121.139 387.113 121.53L401.725 127.722C404.407 128.859 405.014 132.39 402.864 134.356L391.156 145.069C390.417 145.746 389.958 146.676 389.871 147.674L388.497 163.484C388.245 166.386 385.074 168.054 382.54 166.618L368.733 158.793C367.861 158.299 366.836 158.15 365.859 158.376L350.398 161.955C347.56 162.612 344.994 160.112 345.577 157.258L348.752 141.709C348.953 140.727 348.777 139.705 348.261 138.846L340.079 125.248C338.577 122.752 340.162 119.539 343.057 119.211L358.826 117.426C359.822 117.313 360.739 116.831 361.396 116.074L371.801 104.091Z" fill="url(#paint18_linear_23_8)"/>
<path d="M449.613 285.994C451.43 282.02 456.75 281.26 459.608 284.566L472.391 299.352C473.374 300.489 474.749 301.216 476.242 301.388L495.659 303.628C500 304.129 502.367 308.953 500.106 312.693L489.994 329.42C489.216 330.706 488.95 332.238 489.247 333.712L493.117 352.871C493.982 357.154 490.126 360.896 485.871 359.901L466.838 355.453C465.374 355.11 463.834 355.33 462.525 356.069L445.499 365.67C441.693 367.816 436.943 365.304 436.574 360.95L434.923 341.474C434.796 339.976 434.111 338.58 433.004 337.563L418.612 324.338C415.395 321.381 416.315 316.087 420.342 314.39L438.355 306.802C439.741 306.218 440.857 305.136 441.482 303.768L449.613 285.994Z" fill="url(#paint19_linear_23_8)"/>
<path d="M27.6859 109.023C28.4563 106.978 31.0838 106.416 32.6227 107.967L41.6176 117.031C42.1471 117.565 42.8576 117.88 43.6086 117.915L56.3647 118.504C58.5472 118.605 59.8934 120.931 58.894 122.873L53.0531 134.229C52.7092 134.898 52.6289 135.671 52.8279 136.396L56.2092 148.71C56.7877 150.816 54.9922 152.815 52.8356 152.465L40.2308 150.419C39.4888 150.299 38.7286 150.461 38.1007 150.875L27.4343 157.896C25.6094 159.097 23.1535 158.007 22.82 155.848L20.8708 143.228C20.7561 142.485 20.3666 141.812 19.7795 141.342L9.80597 133.368C8.09957 132.003 8.37728 129.331 10.3278 128.346L21.7279 122.593C22.399 122.254 22.9185 121.676 23.1835 120.972L27.6859 109.023Z" fill="url(#paint20_linear_23_8)"/>
<path d="M100.591 97.5444C101.539 96.439 103.313 96.6858 103.924 98.0082L107.318 105.355C107.528 105.81 107.901 106.169 108.364 106.362L115.833 109.477C117.177 110.037 117.491 111.801 116.422 112.79L110.483 118.288C110.116 118.628 109.889 119.094 109.849 119.594L109.195 127.66C109.077 129.112 107.497 129.955 106.225 129.244L99.1617 125.295C98.7243 125.051 98.211 124.979 97.7234 125.095L89.85 126.966C88.4329 127.303 87.1427 126.06 87.4258 124.631L88.9988 116.693C89.0962 116.201 89.0055 115.691 88.7446 115.263L84.5324 108.353C83.7742 107.11 84.5572 105.499 86.0036 105.326L94.0394 104.369C94.537 104.31 94.9943 104.066 95.3207 103.686L100.591 97.5444Z" fill="url(#paint21_linear_23_8)"/>
<path d="M414.175 74.8226C414.286 73.3703 415.862 72.5194 417.137 73.2238L424.22 77.138C424.659 77.3804 425.172 77.4493 425.659 77.331L433.523 75.4214C434.939 75.0777 436.235 76.3138 435.959 77.7439L434.425 85.6899C434.33 86.182 434.423 86.6918 434.686 87.1184L438.933 94.0075C439.697 95.2474 438.922 96.8623 437.476 97.0417L429.445 98.0384C428.948 98.1001 428.492 98.3463 428.168 98.7282L422.928 104.896C421.985 106.006 420.209 105.767 419.592 104.448L416.163 97.1183C415.95 96.6643 415.575 96.3067 415.112 96.1161L407.627 93.0387C406.28 92.4848 405.958 90.7227 407.022 89.728L412.933 84.2011C413.299 83.8589 413.523 83.3916 413.561 82.8919L414.175 74.8226Z" fill="url(#paint22_linear_23_8)"/>
<path d="M47.4034 48.1527C47.4587 47.4265 48.2468 47.0011 48.8842 47.3533L52.5273 49.3665C52.7466 49.4877 53.0035 49.5222 53.247 49.463L57.2918 48.4808C57.9995 48.309 58.6477 48.927 58.5096 49.6421L57.7207 53.729C57.6733 53.9751 57.7199 54.23 57.8513 54.4433L60.0354 57.9866C60.4175 58.6066 60.03 59.414 59.3073 59.5037L55.1766 60.0164C54.9279 60.0472 54.6999 60.1703 54.5377 60.3613L51.8427 63.5334C51.3712 64.0884 50.4835 63.9694 50.1748 63.3097L48.4108 59.5396C48.3046 59.3127 48.1171 59.1338 47.8854 59.0386L44.0357 57.4557C43.3621 57.1788 43.2011 56.2977 43.733 55.8004L46.7735 52.9577C46.9565 52.7866 47.0686 52.5529 47.0877 52.3031L47.4034 48.1527Z" fill="url(#paint23_linear_23_8)"/>
<path d="M410.403 252.153C410.459 251.427 411.247 251.001 411.884 251.353L415.527 253.367C415.747 253.488 416.003 253.522 416.247 253.463L420.292 252.481C420.999 252.309 421.648 252.927 421.51 253.642L420.721 257.729C420.673 257.975 420.72 258.23 420.851 258.443L423.035 261.987C423.418 262.607 423.03 263.414 422.307 263.504L418.177 264.016C417.928 264.047 417.7 264.17 417.538 264.361L414.843 267.533C414.371 268.088 413.483 267.969 413.175 267.31L411.411 263.54C411.305 263.313 411.117 263.134 410.885 263.039L407.036 261.456C406.362 261.179 406.201 260.298 406.733 259.8L409.773 256.958C409.957 256.787 410.069 256.553 410.088 256.303L410.403 252.153Z" fill="url(#paint24_linear_23_8)"/>
<path d="M292.403 6.15271C292.459 5.42654 293.247 5.00109 293.884 5.35333L297.527 7.36654C297.747 7.48774 298.003 7.52218 298.247 7.46305L302.292 6.48083C302.999 6.30898 303.648 6.92705 303.51 7.64212L302.721 11.729C302.673 11.9751 302.72 12.23 302.851 12.4433L305.035 15.9866C305.418 16.6066 305.03 17.414 304.307 17.5037L300.177 18.0164C299.928 18.0472 299.7 18.1703 299.538 18.3613L296.843 21.5334C296.371 22.0884 295.483 21.9694 295.175 21.3097L293.411 17.5396C293.305 17.3127 293.117 17.1338 292.885 17.0386L289.036 15.4557C288.362 15.1788 288.201 14.2977 288.733 13.8004L291.773 10.9577C291.957 10.7866 292.069 10.5529 292.088 10.3031L292.403 6.15271Z" fill="url(#paint25_linear_23_8)"/>
<defs>
<linearGradient id="paint0_linear_23_8" x1="180.446" y1="69.446" x2="210.446" y2="69.446" gradientUnits="userSpaceOnUse">
<stop stop-color="#DEE1AB"/>
<stop offset="0.5" stop-color="#C15544"/>
<stop offset="1" stop-color="#5146CF"/>
</linearGradient>
<linearGradient id="paint1_linear_23_8" x1="188.023" y1="51.8274" x2="205.632" y2="51.8274" gradientUnits="userSpaceOnUse">
<stop stop-color="#DEE1AB"/>
<stop offset="0.5" stop-color="#C15544"/>
<stop offset="1" stop-color="#5146CF"/>
</linearGradient>
<linearGradient id="paint2_linear_23_8" x1="130.023" y1="43.8274" x2="147.632" y2="43.8274" gradientUnits="userSpaceOnUse">
<stop stop-color="#DEE1AB"/>
<stop offset="0.5" stop-color="#C15544"/>
<stop offset="1" stop-color="#5146CF"/>
</linearGradient>
<linearGradient id="paint3_linear_23_8" x1="370.023" y1="62.8274" x2="387.632" y2="62.8274" gradientUnits="userSpaceOnUse">
<stop stop-color="#DEE1AB"/>
<stop offset="0.5" stop-color="#C15544"/>
<stop offset="1" stop-color="#5146CF"/>
</linearGradient>
<linearGradient id="paint4_linear_23_8" x1="356.593" y1="72.0933" x2="379.169" y2="72.0933" gradientUnits="userSpaceOnUse">
<stop stop-color="#DEE1AB"/>
<stop offset="0.5" stop-color="#FAE2AF"/>
<stop offset="1" stop-color="#C15544"/>
</linearGradient>
<linearGradient id="paint5_linear_23_8" x1="491.023" y1="234.827" x2="508.632" y2="234.827" gradientUnits="userSpaceOnUse">
<stop stop-color="#DEE1AB"/>
<stop offset="0.5" stop-color="#C15544"/>
<stop offset="1" stop-color="#5146CF"/>
</linearGradient>
<linearGradient id="paint6_linear_23_8" x1="89.0228" y1="373.827" x2="106.632" y2="373.827" gradientUnits="userSpaceOnUse">
<stop stop-color="#DEE1AB"/>
<stop offset="0.5" stop-color="#C15544"/>
<stop offset="1" stop-color="#5146CF"/>
</linearGradient>
<linearGradient id="paint7_linear_23_8" x1="32.0228" y1="205.827" x2="49.6323" y2="205.827" gradientUnits="userSpaceOnUse">
<stop stop-color="#DEE1AB"/>
<stop offset="0.5" stop-color="#C15544"/>
<stop offset="1" stop-color="#5146CF"/>
</linearGradient>
<linearGradient id="paint8_linear_23_8" x1="36.3222" y1="217.396" x2="68.4699" y2="217.396" gradientUnits="userSpaceOnUse">
<stop stop-color="#DEE1AB"/>
<stop offset="0.5" stop-color="#C15544"/>
<stop offset="1" stop-color="#5146CF"/>
</linearGradient>
<linearGradient id="paint9_linear_23_8" x1="55.3222" y1="389.396" x2="87.4699" y2="389.396" gradientUnits="userSpaceOnUse">
<stop stop-color="#DEE1AB"/>
<stop offset="0.5" stop-color="#C15544"/>
<stop offset="1" stop-color="#5146CF"/>
</linearGradient>
<linearGradient id="paint10_linear_23_8" x1="417.366" y1="199.798" x2="426.372" y2="199.798" gradientUnits="userSpaceOnUse">
<stop stop-color="#DEE1AB"/>
<stop offset="0.5" stop-color="#FAE2AF"/>
<stop offset="1" stop-color="#C15544"/>
</linearGradient>
<linearGradient id="paint11_linear_23_8" x1="475.491" y1="252.994" x2="484.497" y2="252.994" gradientUnits="userSpaceOnUse">
<stop stop-color="#DEE1AB"/>
<stop offset="0.5" stop-color="#FAE2AF"/>
<stop offset="1" stop-color="#C15544"/>
</linearGradient>
<linearGradient id="paint12_linear_23_8" x1="279.491" y1="49.9942" x2="288.497" y2="49.9942" gradientUnits="userSpaceOnUse">
<stop stop-color="#DEE1AB"/>
<stop offset="0.5" stop-color="#FAE2AF"/>
<stop offset="1" stop-color="#C15544"/>
</linearGradient>
<linearGradient id="paint13_linear_23_8" x1="23.4909" y1="249.994" x2="32.4973" y2="249.994" gradientUnits="userSpaceOnUse">
<stop stop-color="#DEE1AB"/>
<stop offset="0.5" stop-color="#FAE2AF"/>
<stop offset="1" stop-color="#C15544"/>
</linearGradient>
<linearGradient id="paint14_linear_23_8" x1="136.362" y1="53.4177" x2="148.07" y2="53.4177" gradientUnits="userSpaceOnUse">
<stop stop-color="#DEE1AB"/>
<stop offset="0.5" stop-color="#FAE2AF"/>
<stop offset="1" stop-color="#C15544"/>
</linearGradient>
<linearGradient id="paint15_linear_23_8" x1="76.4909" y1="361.994" x2="85.4973" y2="361.994" gradientUnits="userSpaceOnUse">
<stop stop-color="#DEE1AB"/>
<stop offset="0.5" stop-color="#FAE2AF"/>
<stop offset="1" stop-color="#C15544"/>
</linearGradient>
<linearGradient id="paint16_linear_23_8" x1="463.152" y1="134.652" x2="476.152" y2="134.652" gradientUnits="userSpaceOnUse">
<stop stop-color="#DEE1AB"/>
<stop offset="0.5" stop-color="#C15544"/>
<stop offset="1" stop-color="#5146CF"/>
</linearGradient>
<linearGradient id="paint17_linear_23_8" x1="36.3126" y1="304.317" x2="163.687" y2="291.683" gradientUnits="userSpaceOnUse">
<stop stop-color="#DEE1AB"/>
<stop offset="0.5" stop-color="#C15544"/>
<stop offset="1" stop-color="#5146CF"/>
</linearGradient>
<linearGradient id="paint18_linear_23_8" x1="333.389" y1="131.116" x2="407.612" y2="141.884" gradientUnits="userSpaceOnUse">
<stop stop-color="#DEE1AB"/>
<stop offset="0.5" stop-color="#C15544"/>
<stop offset="1" stop-color="#5146CF"/>
</linearGradient>
<linearGradient id="paint19_linear_23_8" x1="411.499" y1="333.502" x2="509.501" y2="319.498" gradientUnits="userSpaceOnUse">
<stop stop-color="#DEE1AB"/>
<stop offset="0.5" stop-color="#FAE2AF"/>
<stop offset="1" stop-color="#C15544"/>
</linearGradient>
<linearGradient id="paint20_linear_23_8" x1="6.65191" y1="139.667" x2="64.3482" y2="127.333" gradientUnits="userSpaceOnUse">
<stop stop-color="#DEE1AB"/>
<stop offset="0.5" stop-color="#C15544"/>
<stop offset="1" stop-color="#5146CF"/>
</linearGradient>
<linearGradient id="paint21_linear_23_8" x1="81.1815" y1="111.382" x2="118.819" y2="116.618" gradientUnits="userSpaceOnUse">
<stop stop-color="#DEE1AB"/>
<stop offset="0.5" stop-color="#C15544"/>
<stop offset="1" stop-color="#5146CF"/>
</linearGradient>
<linearGradient id="paint22_linear_23_8" x1="406.718" y1="97.4629" x2="440.157" y2="79.4114" gradientUnits="userSpaceOnUse">
<stop stop-color="#DEE1AB"/>
<stop offset="0.5" stop-color="#FAE2AF"/>
<stop offset="1" stop-color="#C15544"/>
</linearGradient>
<linearGradient id="paint23_linear_23_8" x1="43.6003" y1="59.7221" x2="60.6433" y2="50.5216" gradientUnits="userSpaceOnUse">
<stop stop-color="#DEE1AB"/>
<stop offset="0.5" stop-color="#FAE2AF"/>
<stop offset="1" stop-color="#C15544"/>
</linearGradient>
<linearGradient id="paint24_linear_23_8" x1="406.6" y1="263.722" x2="423.643" y2="254.522" gradientUnits="userSpaceOnUse">
<stop stop-color="#DEE1AB"/>
<stop offset="0.5" stop-color="#FAE2AF"/>
<stop offset="1" stop-color="#C15544"/>
</linearGradient>
<linearGradient id="paint25_linear_23_8" x1="288.6" y1="17.7221" x2="305.643" y2="8.52159" gradientUnits="userSpaceOnUse">
<stop stop-color="#DEE1AB"/>
<stop offset="0.5" stop-color="#FAE2AF"/>
<stop offset="1" stop-color="#C15544"/>
</linearGradient>
</defs>
</svg>
