<svg width="16" height="16" viewBox="0 0 16 16" fill="none" xmlns="http://www.w3.org/2000/svg">
<path d="M7.10928 1.74536C7.48043 1.01811 8.51958 1.01811 8.89072 1.74536L10.1669 4.24609C10.3122 4.53081 10.5849 4.72891 10.9006 4.77911L13.6733 5.22009C14.4796 5.34833 14.8007 6.33662 14.2238 6.91433L12.2398 8.90084C12.0139 9.12701 11.9098 9.44755 11.9596 9.7633L12.397 12.5366C12.5242 13.3431 11.6835 13.9539 10.9558 13.5837L8.45342 12.3107C8.16851 12.1657 7.83149 12.1657 7.54658 12.3107L5.04422 13.5837C4.31649 13.9539 3.4758 13.3431 3.60301 12.5366L4.04043 9.76329C4.09023 9.44755 3.98609 9.12701 3.7602 8.90084L1.77624 6.91433C1.19927 6.33662 1.52038 5.34833 2.32673 5.22009L5.09943 4.77911C5.41512 4.72891 5.68778 4.53081 5.83308 4.24609L7.10928 1.74536Z" fill="#9FC8D9"/>
</svg>
