<svg width="558" height="630" viewBox="0 0 558 630" fill="none" xmlns="http://www.w3.org/2000/svg">
<path d="M336.784 266.871C357.022 281.193 382.524 287.906 407.198 285.4C403.795 316.754 393.402 346.871 383.086 376.668C379.014 388.431 372.663 409.746 365.112 419.648C352.335 436.415 333.51 451.018 312.672 454.336C306.23 455.361 299.621 455.931 293.194 454.814C281.009 452.696 270.632 444.707 262.177 435.678C240.595 412.632 228.486 365.794 229.177 334.242C229.952 336.407 232.937 336.558 235.194 336.118C246.133 333.954 255.492 327.097 264.243 320.187C275.965 310.937 287.352 301.271 298.375 291.209C305.638 284.572 312.946 277.487 316.699 268.398C319.638 261.29 319.745 251.57 324.705 245.617C326.498 255.413 327.85 260.554 336.784 266.871Z" fill="#CA9A7E" stroke="#794D36" stroke-miterlimit="10"/>
<mask id="mask0_1_105" style="mask-type:luminance" maskUnits="userSpaceOnUse" x="105" y="288" width="396" height="334">
<path d="M387.652 431.601C384.552 448.709 392.324 465.901 392.551 483.291C392.658 491.704 390.987 500.027 389.33 508.281C394.61 502.017 398.682 494.742 401.265 486.966C396.996 495.653 393.683 504.811 391.42 514.22C407.335 507.378 423.721 501.637 440.426 497.043C424.374 503.687 408.322 510.332 392.27 516.976C416.861 518.593 441.543 520.203 466.133 518.495C436.43 514.098 405.96 514.926 376.538 520.925C382.349 541.511 382.395 582.061 381.103 603.415C413.921 615.268 437.942 626.203 472.157 619.361C479.754 617.843 489.63 608.73 490.389 604.933C493.208 590.862 491.422 571.886 491.673 557.534C492.326 520.325 504.291 483.382 499.726 446.454C498.244 434.486 495.038 422.762 494.051 410.741C493.299 401.621 493.838 392.448 493.869 383.297C493.967 354.996 488.239 324.758 468.344 304.619C464.629 300.853 460.352 297.451 455.308 295.841C448.038 293.518 440.168 295.173 432.54 295.006C424.473 294.831 414.719 293.039 407.768 288.939C406.924 292.796 405.694 296.608 403.665 299.995C402.26 302.341 400.482 304.46 399.305 306.928C396.912 311.917 397.109 317.931 394.246 322.67C392.445 325.646 389.536 327.902 388.039 331.045C386.383 334.523 386.618 338.73 384.674 342.049C373.94 360.357 376.598 388.484 369.1 408.334C363.441 423.323 355.943 438.564 342.694 447.578C331.428 455.247 316.957 457.472 303.526 455.118C290.102 452.764 277.682 446.104 267.138 437.47C262.192 415.707 248.062 392.379 236.546 373.259C231.167 364.336 225.796 355.413 220.418 346.491C218.093 342.626 215.708 338.7 212.312 335.731C205.787 330.028 196.618 328.745 188.01 327.697C183.088 327.097 177.983 326.52 173.273 328.069C165.517 330.62 160.731 338.206 156.765 345.337C134.666 385.059 117.65 428.366 113.7 473.639C112.431 488.219 112.507 502.973 109.673 517.333C108.177 524.927 105.86 532.391 105.26 540.106C104.356 551.641 107.311 563.085 110.236 574.278C110.745 576.237 111.93 578.675 113.935 578.371C112.492 582.008 113.996 586.299 116.708 589.116C119.42 591.933 123.135 593.55 126.812 594.864C143.57 600.863 161.984 602.162 179.419 598.57C213.08 591.637 247.295 605.207 281.625 606.87C296.833 607.606 312.156 608.039 327.205 605.753C349.835 602.314 368.759 611.836 389.642 602.465" fill="white"/>
</mask>
<g mask="url(#mask0_1_105)">
<path d="M63.2803 284.762C182.966 278.171 286.418 291.733 397.991 295.226C430.277 296.236 462.73 297.216 494.659 285.856C507.603 281.246 520.974 274.67 533.576 283.008" stroke="url(#paint0_linear_1_105)" stroke-width="3" stroke-miterlimit="10"/>
<path d="M63.4094 292.037C105.905 289.645 146.419 290.131 185.982 291.399C200.887 291.877 215.647 292.47 230.339 293.199C252.886 294.315 275.258 295.75 297.653 297.147C320.854 298.598 344.084 300.01 367.573 301.096C377.791 301.567 388.054 301.985 398.386 302.311C414.308 302.82 430.261 303.336 446.176 302.433C462.563 301.499 478.926 299.061 495.137 293.449C508.112 288.969 521.498 282.522 534.123 290.571" stroke="url(#paint1_linear_1_105)" stroke-width="3" stroke-miterlimit="10"/>
<path d="M63.531 299.312C106.019 296.874 146.578 297.633 186.195 298.78C201.107 299.213 215.875 299.714 230.582 300.382C253.137 301.407 275.54 302.843 297.957 304.232C321.18 305.675 344.426 307.087 367.931 308.181C378.156 308.659 388.426 309.069 398.766 309.419C414.696 309.943 430.672 310.489 446.587 309.662C462.98 308.811 479.366 306.518 495.601 301.066C508.606 296.714 522.014 290.397 534.648 298.15" stroke="url(#paint2_linear_1_105)" stroke-width="3" stroke-miterlimit="10"/>
<path d="M63.6526 306.594C106.133 304.103 146.738 305.151 186.415 306.176C201.343 306.564 216.111 306.966 230.825 307.573C253.395 308.507 275.821 309.935 298.254 311.325C321.5 312.768 344.768 314.172 368.288 315.273C378.52 315.752 388.806 316.169 399.153 316.526C415.098 317.066 431.082 317.635 447.012 316.898C463.413 316.139 479.822 313.99 496.079 308.697C509.115 304.475 522.539 298.286 535.187 305.743" stroke="url(#paint3_linear_1_105)" stroke-width="3" stroke-miterlimit="10"/>
<path d="M63.7742 313.869C106.24 311.332 146.897 312.654 186.636 313.557C201.571 313.899 216.339 314.203 231.076 314.749C253.654 315.592 276.102 317.012 298.565 318.402C321.834 319.837 345.125 321.242 368.66 322.351C378.9 322.829 389.194 323.254 399.548 323.619C415.509 324.173 431.5 324.765 447.438 324.112C463.854 323.437 480.278 321.432 496.558 316.299C509.632 312.206 523.07 306.146 535.726 313.314" stroke="url(#paint4_linear_1_105)" stroke-width="3" stroke-miterlimit="10"/>
<path d="M63.8955 321.143C106.353 318.554 147.057 320.164 186.856 320.946C201.798 321.25 216.574 321.447 231.319 321.941C253.912 322.692 276.383 324.112 298.861 325.494C322.145 326.93 345.467 328.327 369.017 329.436C379.272 329.922 389.573 330.347 399.928 330.719C415.904 331.288 431.91 331.911 447.855 331.334C464.279 330.742 480.734 328.881 497.021 323.907C510.125 319.943 523.579 314.013 536.25 320.885" stroke="url(#paint5_linear_1_105)" stroke-width="3" stroke-miterlimit="10"/>
<path d="M64.0247 328.418C106.475 325.775 147.224 327.666 187.076 328.327C202.026 328.585 216.809 328.691 231.562 329.117C254.162 329.777 276.664 331.19 299.165 332.572C322.472 334.007 345.809 335.404 369.381 336.513C379.645 336.999 389.953 337.432 400.315 337.811C416.306 338.396 432.32 339.042 448.273 338.548C464.705 338.039 481.182 336.331 497.492 331.516C510.627 327.674 524.103 321.88 536.79 328.464" stroke="url(#paint6_linear_1_105)" stroke-width="3" stroke-miterlimit="10"/>
<path d="M64.1462 335.7C106.589 333.012 147.383 335.184 187.296 335.716C202.262 335.928 217.037 335.936 231.813 336.3C254.428 336.87 276.952 338.282 299.469 339.657C322.798 341.084 346.158 342.482 369.738 343.598C380.009 344.084 390.325 344.517 400.703 344.911C416.709 345.511 432.738 346.18 448.691 345.77C465.13 345.352 481.63 343.78 497.963 339.125C511.128 335.412 524.62 329.747 537.322 336.034" stroke="url(#paint7_linear_1_105)" stroke-width="3" stroke-miterlimit="10"/>
<path d="M64.2678 342.975C106.695 340.234 147.543 342.687 187.517 343.104C202.49 343.271 217.273 343.18 232.056 343.484C254.679 343.962 277.234 345.367 299.773 346.742C323.125 348.169 346.508 349.559 370.103 350.683C380.389 351.169 390.713 351.609 401.09 352.012C417.111 352.627 433.148 353.318 449.116 352.999C465.563 352.665 482.094 351.245 498.434 346.742C511.637 343.157 525.136 337.622 537.853 343.613" stroke="url(#paint8_linear_1_105)" stroke-width="3" stroke-miterlimit="10"/>
<path d="M64.3894 350.25C106.809 347.463 147.702 350.197 187.737 350.485C202.718 350.607 217.508 350.417 232.307 350.667C254.945 351.055 277.522 352.46 300.077 353.826C323.452 355.246 346.857 356.636 370.468 357.768C380.761 358.261 391.093 358.702 401.478 359.112C417.507 359.742 433.558 360.463 449.534 360.22C465.989 359.97 482.542 358.694 498.905 354.358C512.139 350.903 525.661 345.496 538.385 351.199" stroke="url(#paint9_linear_1_105)" stroke-width="3" stroke-miterlimit="10"/>
<path d="M64.5186 357.532C106.931 354.692 147.877 357.707 187.965 357.881C202.961 357.957 217.744 357.669 232.557 357.859C255.203 358.155 277.811 359.552 300.388 360.919C323.786 362.339 347.207 363.728 370.84 364.86C381.141 365.354 391.488 365.802 401.88 366.219C417.924 366.865 433.991 367.609 449.967 367.449C466.429 367.29 482.998 366.12 499.391 361.974C512.648 358.618 526.192 353.371 538.932 358.777" stroke="url(#paint10_linear_1_105)" stroke-width="3" stroke-miterlimit="10"/>
<path d="M64.6401 364.807C107.037 361.921 148.037 365.217 188.178 365.262C203.181 365.293 217.972 364.913 232.793 365.035C255.454 365.24 278.084 366.629 300.677 367.996C324.098 369.409 347.541 370.798 371.182 371.93C381.491 372.423 391.845 372.871 402.245 373.304C418.304 373.965 434.379 374.732 450.37 374.656C466.847 374.58 483.431 373.555 499.84 369.568C513.126 366.341 526.694 361.223 539.449 366.341" stroke="url(#paint11_linear_1_105)" stroke-width="3" stroke-miterlimit="10"/>
<path d="M64.7617 372.082C107.151 369.143 148.196 372.719 188.398 372.644C203.409 372.628 218.207 372.15 233.044 372.218C255.712 372.332 278.373 373.722 300.989 375.081C324.432 376.493 347.898 377.876 371.554 379.015C381.878 379.516 392.24 379.964 402.64 380.404C418.715 381.08 434.804 381.877 450.795 381.877C467.28 381.885 483.887 381.012 500.318 377.185C513.643 374.079 527.218 369.097 539.988 373.919" stroke="url(#paint12_linear_1_105)" stroke-width="3" stroke-miterlimit="10"/>
<path d="M64.8831 379.356C107.265 376.372 148.356 380.23 188.618 380.032C203.637 379.971 218.435 379.394 233.287 379.402C255.97 379.425 278.654 380.807 301.285 382.166C324.751 383.571 348.232 384.953 371.911 386.099C382.243 386.601 392.612 387.056 403.027 387.504C419.117 388.195 435.214 389.015 451.221 389.107C467.713 389.198 484.35 388.469 500.797 384.801C514.152 381.824 527.742 376.972 540.527 381.498" stroke="url(#paint13_linear_1_105)" stroke-width="3" stroke-miterlimit="10"/>
<path d="M65.0046 386.639C107.371 383.601 148.515 387.74 188.838 387.421C203.872 387.314 218.671 386.639 233.537 386.585C256.236 386.517 278.935 387.899 301.596 389.251C325.085 390.656 348.589 392.03 372.283 393.184C382.622 393.685 392.999 394.149 403.422 394.604C419.527 395.31 435.632 396.153 451.646 396.328C468.146 396.51 484.806 395.918 501.268 392.41C514.653 389.562 528.266 384.839 541.059 389.076" stroke="url(#paint14_linear_1_105)" stroke-width="3" stroke-miterlimit="10"/>
<path d="M65.1338 393.913C107.493 390.823 148.682 395.25 189.059 394.809C204.1 394.665 218.906 393.883 233.78 393.777C256.487 393.617 279.216 394.992 301.892 396.343C325.404 397.74 348.931 399.123 372.64 400.277C382.987 400.778 393.379 401.249 403.802 401.712C419.915 402.433 436.042 403.299 452.056 403.557C468.564 403.823 485.246 403.375 501.731 400.034C515.147 397.308 528.775 392.721 541.583 396.662" stroke="url(#paint15_linear_1_105)" stroke-width="3" stroke-miterlimit="10"/>
<path d="M65.2554 401.188C107.607 398.052 148.842 402.752 189.279 402.19C204.328 402.001 219.134 401.127 234.024 400.953C256.745 400.702 279.497 402.069 302.196 403.421C325.731 404.818 349.281 406.192 372.997 407.354C383.359 407.863 393.752 408.326 404.189 408.804C420.317 409.541 436.453 410.437 452.482 410.771C468.997 411.12 485.71 410.824 502.21 407.635C515.663 405.038 529.307 400.581 542.13 404.233" stroke="url(#paint16_linear_1_105)" stroke-width="3" stroke-miterlimit="10"/>
<path d="M65.377 408.47C107.713 405.281 149.001 410.262 189.499 409.579C204.564 409.344 219.37 408.372 234.274 408.136C257.004 407.794 279.786 409.161 302.508 410.505C326.058 411.903 349.63 413.269 373.37 414.431C383.739 414.94 394.147 415.411 404.585 415.897C420.728 416.649 436.87 417.567 452.907 417.985C469.43 418.418 486.165 418.266 502.681 415.236C516.165 412.768 529.824 408.44 542.662 411.796" stroke="url(#paint17_linear_1_105)" stroke-width="3" stroke-miterlimit="10"/>
<path d="M65.4985 415.745C107.827 412.51 149.161 417.772 189.72 416.968C204.792 416.687 219.605 415.616 234.517 415.32C257.262 414.887 280.067 416.246 302.804 417.59C326.377 418.98 349.972 420.347 373.727 421.516C384.104 422.025 394.519 422.503 404.964 422.997C421.123 423.764 437.281 424.706 453.325 425.214C469.863 425.738 486.614 425.723 503.152 422.86C516.666 420.521 530.348 416.322 543.194 419.382" stroke="url(#paint18_linear_1_105)" stroke-width="3" stroke-miterlimit="10"/>
<path d="M65.6201 423.02C107.941 419.732 149.32 425.275 189.94 424.349C205.019 424.022 219.833 422.853 234.761 422.503C257.513 421.979 280.348 423.339 303.108 424.675C326.703 426.065 350.321 427.424 374.091 428.601C384.476 429.117 394.906 429.596 405.359 430.097C421.533 430.879 437.699 431.851 453.75 432.436C470.296 433.043 487.077 433.18 503.63 430.469C517.175 428.252 530.872 424.189 543.733 426.961" stroke="url(#paint19_linear_1_105)" stroke-width="3" stroke-miterlimit="10"/>
<path d="M65.7493 430.302C108.063 426.968 149.488 432.793 190.16 431.745C205.247 431.373 220.069 430.105 235.011 429.695C257.778 429.079 280.637 430.431 303.412 431.768C327.03 433.15 350.671 434.517 374.449 435.694C384.848 436.21 395.279 436.688 405.739 437.205C421.928 438.002 438.109 438.997 454.161 439.665C470.714 440.356 487.518 440.637 504.086 438.086C517.669 435.997 531.373 432.064 544.25 434.539" stroke="url(#paint20_linear_1_105)" stroke-width="3" stroke-miterlimit="10"/>
<path d="M65.8708 437.577C108.169 434.19 149.647 440.295 190.381 439.126C205.483 438.708 220.304 437.349 235.254 436.871C258.029 436.164 280.918 437.516 303.716 438.845C327.357 440.227 351.013 441.586 374.813 442.771C385.221 443.287 395.659 443.773 406.127 444.297C422.331 445.11 438.519 446.127 454.586 446.879C471.147 447.654 487.974 448.079 504.565 445.694C518.178 443.735 531.905 439.931 544.797 442.118" stroke="url(#paint21_linear_1_105)" stroke-width="3" stroke-miterlimit="10"/>
<path d="M65.9922 444.851C108.283 441.412 149.807 447.805 190.601 446.514C205.711 446.051 220.532 444.593 235.505 444.062C258.295 443.264 281.207 444.608 304.019 445.937C327.683 447.312 351.362 448.671 375.178 449.863C385.593 450.387 396.046 450.873 406.522 451.405C422.733 452.233 438.937 453.273 455.011 454.108C471.58 454.974 488.437 455.543 505.043 453.311C518.687 451.481 532.429 447.805 545.336 449.696" stroke="url(#paint22_linear_1_105)" stroke-width="3" stroke-miterlimit="10"/>
<path d="M66.1138 452.126C108.397 448.641 149.974 455.308 190.821 453.896C205.939 453.387 220.767 451.83 235.748 451.238C258.546 450.349 281.488 451.686 304.323 453.015C328.01 454.389 351.711 455.741 375.542 456.933C385.973 457.457 396.426 457.951 406.909 458.49C423.136 459.333 439.355 460.403 455.437 461.322C472.013 462.271 488.893 462.985 505.522 460.912C519.203 459.211 532.961 455.665 545.875 457.26" stroke="url(#paint23_linear_1_105)" stroke-width="3" stroke-miterlimit="10"/>
<path d="M66.2354 459.409C108.503 455.87 150.133 462.826 191.041 461.284C206.174 460.73 221.003 459.074 235.991 458.421C258.804 457.442 281.761 458.778 304.62 460.1C328.329 461.466 352.053 462.818 375.899 464.018C386.337 464.542 396.806 465.035 407.289 465.59C423.531 466.448 439.757 467.541 455.847 468.544C472.431 469.577 489.333 470.442 505.978 468.529C519.69 466.949 533.462 463.54 546.392 464.846" stroke="url(#paint24_linear_1_105)" stroke-width="3" stroke-miterlimit="10"/>
<path d="M66.3645 466.683C108.625 463.099 150.3 470.328 191.262 468.673C206.402 468.081 221.231 466.326 236.242 465.613C259.062 464.542 282.05 465.871 304.931 467.192C328.663 468.559 352.403 469.911 376.264 471.11C386.71 471.634 397.185 472.136 407.676 472.697C423.933 473.571 440.175 474.687 456.265 475.773C472.864 476.889 489.789 477.899 506.449 476.145C520.191 474.695 533.979 471.414 546.924 472.424" stroke="url(#paint25_linear_1_105)" stroke-width="3" stroke-miterlimit="10"/>
<path d="M66.4861 473.958C108.739 470.321 150.46 477.838 191.482 476.054C206.63 475.416 221.466 473.563 236.485 472.789C259.321 471.627 282.331 472.956 305.227 474.269C328.982 475.636 352.745 476.98 376.621 478.188C387.074 478.719 397.565 479.22 408.064 479.79C424.336 480.678 440.585 481.825 456.69 482.987C473.297 484.194 490.245 485.348 506.927 483.746C520.708 482.425 534.511 479.274 547.471 479.995" stroke="url(#paint26_linear_1_105)" stroke-width="3" stroke-miterlimit="10"/>
<path d="M66.6077 481.24C108.845 477.557 150.62 485.349 191.702 483.45C206.858 482.767 221.702 480.815 236.736 479.98C259.586 478.727 282.62 480.048 305.539 481.362C329.317 482.721 353.102 484.065 376.993 485.28C387.462 485.812 397.953 486.321 408.459 486.898C424.746 487.801 441.003 488.971 457.116 490.216C473.73 491.507 490.701 492.806 507.398 491.37C521.209 490.178 535.027 487.156 548.003 487.581" stroke="url(#paint27_linear_1_105)" stroke-width="3" stroke-miterlimit="10"/>
<path d="M66.7292 488.515C108.959 484.779 150.779 492.859 191.923 490.831C207.093 490.102 221.937 488.052 236.979 487.156C259.837 485.812 282.901 487.125 305.835 488.439C329.628 489.798 353.436 491.135 377.35 492.357C387.826 492.889 398.325 493.405 408.839 493.998C425.134 494.916 441.413 496.109 457.534 497.445C474.155 498.82 491.157 500.27 507.869 498.987C521.71 497.924 535.552 495.03 548.534 495.16" stroke="url(#paint28_linear_1_105)" stroke-width="3" stroke-miterlimit="10"/>
<path d="M66.8584 495.79C109.081 492.008 150.946 500.361 192.143 498.212C207.321 497.438 222.165 495.289 237.222 494.339C260.095 492.904 283.182 494.218 306.139 495.524C329.955 496.876 353.786 498.22 377.708 499.435C388.191 499.974 398.705 500.483 409.226 501.09C425.536 502.024 441.824 503.239 457.951 504.659C474.581 506.125 491.605 507.719 508.34 506.588C522.212 505.654 536.068 502.89 549.066 502.73" stroke="url(#paint29_linear_1_105)" stroke-width="3" stroke-miterlimit="10"/>
<path d="M66.98 503.064C109.187 499.23 151.106 507.871 192.363 505.601C207.549 504.781 222.401 502.54 237.473 501.523C260.354 499.997 283.471 501.303 306.443 502.609C330.281 503.96 354.135 505.297 378.072 506.52C388.563 507.059 399.085 507.575 409.614 508.19C425.939 509.139 442.241 510.385 458.369 511.881C475.006 513.43 492.053 515.169 508.804 514.204C522.713 513.399 536.585 510.764 549.59 510.309" stroke="url(#paint30_linear_1_105)" stroke-width="3" stroke-miterlimit="10"/>
<path d="M67.1013 510.347C109.301 506.459 151.265 515.381 192.584 512.989C207.784 512.124 222.636 509.785 237.715 508.707C260.612 507.089 283.751 508.395 306.747 509.694C330.608 511.038 354.484 512.374 378.437 513.604C388.943 514.144 399.472 514.668 410.001 515.29C426.341 516.255 442.651 517.523 458.794 519.102C475.439 520.735 492.516 522.626 509.282 521.813C523.222 521.137 537.109 518.631 550.137 517.887" stroke="url(#paint31_linear_1_105)" stroke-width="3" stroke-miterlimit="10"/>
<path d="M67.2229 517.622C109.415 513.688 151.425 522.892 192.804 520.378C208.012 519.467 222.864 517.029 237.959 515.898C260.863 514.189 284.033 515.488 307.043 516.779C330.927 518.123 354.819 519.452 378.794 520.689C389.308 521.229 399.844 521.76 410.388 522.39C426.744 523.37 443.062 524.661 459.212 526.331C475.872 528.048 492.964 530.09 509.753 529.43C523.723 528.883 537.625 526.506 550.669 525.466" stroke="url(#paint32_linear_1_105)" stroke-width="3" stroke-miterlimit="10"/>
<path d="M67.3445 524.896C109.529 520.91 151.584 530.394 193.024 527.759C208.24 526.802 223.1 524.266 238.209 523.074C261.129 521.274 284.314 522.565 307.354 523.856C331.261 525.192 355.176 526.521 379.166 527.767C389.687 528.313 400.239 528.837 410.783 529.483C427.154 530.478 443.487 531.799 459.645 533.545C476.312 535.353 493.428 537.532 510.232 537.038C524.24 536.621 538.157 534.373 551.208 533.044" stroke="url(#paint33_linear_1_105)" stroke-width="3" stroke-miterlimit="10"/>
<path d="M67.4736 532.179C109.643 528.146 151.751 537.904 193.245 535.155C208.468 534.153 223.335 531.518 238.452 530.265C261.379 528.374 284.595 529.665 307.651 530.948C331.58 532.285 355.517 533.614 379.515 534.859C390.044 535.406 400.604 535.937 411.156 536.59C427.542 537.6 443.882 538.944 460.048 540.775C476.723 542.665 493.868 544.997 510.688 544.655C524.726 544.366 538.659 542.248 551.725 540.623" stroke="url(#paint34_linear_1_105)" stroke-width="3" stroke-miterlimit="10"/>
<path d="M67.5952 539.453C109.757 535.368 151.919 545.414 193.465 542.536C208.704 541.496 223.563 538.762 238.703 537.441C261.645 535.459 284.883 536.742 307.962 538.026C331.915 539.354 355.875 540.683 379.888 541.929C390.432 542.475 400.991 543.015 411.558 543.675C427.952 544.7 444.308 546.067 460.481 547.981C477.163 549.955 494.332 552.438 511.174 552.248C525.243 552.089 539.198 550.099 552.272 548.178" stroke="url(#paint35_linear_1_105)" stroke-width="3" stroke-miterlimit="10"/>
<path d="M67.7168 546.728C109.871 542.597 152.078 552.917 193.685 549.917C208.932 548.831 223.798 545.999 238.946 544.625C261.896 542.552 285.165 543.835 308.266 545.111C332.241 546.439 356.216 547.761 380.252 549.014C390.804 549.568 401.379 550.107 411.946 550.775C428.355 551.816 444.726 553.205 460.906 555.203C477.596 557.26 494.788 559.926 511.645 559.865C525.752 559.865 539.715 557.982 552.811 555.764" stroke="url(#paint36_linear_1_105)" stroke-width="3" stroke-miterlimit="10"/>
<path d="M67.8384 554.003C109.977 549.819 152.238 560.427 193.906 557.306C209.16 556.174 224.034 553.243 239.189 551.808C262.154 549.644 285.446 550.92 308.562 552.195C332.56 553.524 356.558 554.838 380.609 556.099C391.169 556.653 401.751 557.2 412.326 557.875C428.75 558.931 445.128 560.351 461.317 562.432C478.014 564.581 495.236 567.383 512.108 567.481C526.246 567.611 540.224 565.856 553.336 563.343" stroke="url(#paint37_linear_1_105)" stroke-width="3" stroke-miterlimit="10"/>
<path d="M67.9597 561.285C110.091 557.048 152.397 567.937 194.118 564.695C209.387 563.518 224.254 560.488 239.432 558.992C262.412 556.736 285.727 558.012 308.866 559.28C332.887 560.602 356.908 561.915 380.966 563.183C391.541 563.738 402.131 564.285 412.713 564.976C429.152 566.046 445.546 567.489 461.742 569.653C478.447 571.886 495.692 574.84 512.587 575.09C526.754 575.348 540.755 573.723 553.875 570.921" stroke="url(#paint38_linear_1_105)" stroke-width="3" stroke-miterlimit="10"/>
<path d="M68.0889 568.56C110.213 564.277 152.564 575.447 194.346 572.083C209.623 570.861 224.497 567.74 239.683 566.183C262.671 563.836 286.015 565.105 309.17 566.373C333.206 567.694 357.257 569.008 381.331 570.276C391.913 570.83 402.511 571.385 413.1 572.083C429.555 573.169 445.956 574.635 462.16 576.882C478.88 579.198 496.14 582.297 513.05 582.714C527.248 583.102 541.264 581.606 554.399 578.507" stroke="url(#paint39_linear_1_105)" stroke-width="3" stroke-miterlimit="10"/>
<path d="M68.2104 575.834C110.319 571.498 152.724 582.95 194.566 579.464C209.851 578.196 224.733 574.976 239.934 573.359C262.937 570.921 286.304 572.182 309.481 573.45C333.54 574.764 357.607 576.077 381.703 577.353C392.293 577.915 402.906 578.469 413.495 579.176C429.965 580.277 446.374 581.773 462.585 584.096C479.313 586.496 496.603 589.746 513.529 590.316C527.757 590.832 541.796 589.465 554.938 586.071" stroke="url(#paint40_linear_1_105)" stroke-width="3" stroke-miterlimit="10"/>
<path d="M68.332 583.117C110.433 578.735 152.883 590.467 194.787 586.853C210.086 585.539 224.961 582.221 240.177 580.543C263.187 578.014 286.585 579.274 309.778 580.543C333.859 581.856 357.948 583.162 382.06 584.438C392.658 585 403.278 585.562 413.875 586.276C430.352 587.392 446.784 588.911 463.003 591.318C479.739 593.809 497.051 597.195 514 597.924C528.266 598.562 542.313 597.332 555.478 593.649" stroke="url(#paint41_linear_1_105)" stroke-width="3" stroke-miterlimit="10"/>
<path d="M68.4536 590.391C110.547 585.957 153.043 597.97 195.007 594.241C210.314 592.882 225.196 589.465 240.42 587.734C263.446 585.114 286.866 586.367 310.082 587.627C334.186 588.934 358.298 590.24 382.425 591.523C393.038 592.085 403.665 592.647 414.27 593.376C430.763 594.507 447.202 596.049 463.429 598.547C480.172 601.121 497.507 604.66 514.471 605.548C528.768 606.315 542.837 605.214 556.009 601.235" stroke="url(#paint42_linear_1_105)" stroke-width="3" stroke-miterlimit="10"/>
<path d="M68.5828 597.666C110.661 593.186 153.21 605.48 195.227 601.622C210.542 600.218 225.432 596.702 240.671 594.91C263.704 592.199 287.147 593.452 310.386 594.705C334.513 596.011 358.64 597.309 382.782 598.6C393.402 599.17 404.038 599.732 414.65 600.468C431.158 601.615 447.612 603.179 463.846 605.761C480.597 608.419 497.955 612.102 514.942 613.15C529.269 614.046 543.353 613.074 556.541 608.806" stroke="url(#paint43_linear_1_105)" stroke-width="3" stroke-miterlimit="10"/>
<path d="M68.7043 604.949C110.775 600.415 153.37 612.99 195.448 609.019C210.77 607.576 225.66 603.961 240.914 602.101C263.962 599.299 287.428 600.544 310.689 601.797C334.839 603.096 358.989 604.402 383.147 605.693C393.774 606.262 404.417 606.832 415.038 607.576C431.56 608.738 448.022 610.332 464.264 612.99C481.023 615.739 498.411 619.566 515.413 620.766C529.77 621.791 543.87 620.948 557.073 616.385" stroke="url(#paint44_linear_1_105)" stroke-width="3" stroke-miterlimit="10"/>
<path d="M68.8259 612.223C110.889 607.637 153.529 620.5 195.668 616.4C211.006 614.911 225.895 611.198 241.157 609.277C264.213 606.384 287.709 607.622 310.986 608.874C335.158 610.173 359.331 611.472 383.504 612.77C410.7 614.228 437.987 615.701 464.682 620.204C495.631 625.429 528.76 634.549 557.605 623.955" stroke="url(#paint45_linear_1_105)" stroke-width="3" stroke-miterlimit="10"/>
</g>
<path d="M387.652 431.601C384.552 448.709 392.324 465.901 392.551 483.291C392.658 491.704 390.987 500.027 389.33 508.281C394.61 502.017 398.682 494.742 401.265 486.966C396.996 495.653 393.683 504.811 391.42 514.22C407.335 507.378 423.721 501.637 440.426 497.043C424.374 503.687 408.322 510.332 392.27 516.976C416.861 518.593 441.543 520.203 466.133 518.495C436.43 514.098 405.96 514.926 376.538 520.925C382.349 541.511 382.395 582.061 381.103 603.415C413.921 615.268 437.942 626.203 472.157 619.361C479.754 617.843 489.63 608.73 490.389 604.933C493.208 590.862 491.422 571.886 491.673 557.534C492.326 520.325 504.291 483.382 499.726 446.454C498.244 434.486 495.038 422.762 494.051 410.741C493.299 401.621 493.838 392.448 493.869 383.297C493.967 354.996 488.239 324.758 468.344 304.619C464.629 300.853 460.352 297.451 455.308 295.841C448.038 293.518 440.168 295.173 432.54 295.006C424.473 294.831 414.719 293.039 407.768 288.939C406.924 292.796 405.694 296.608 403.665 299.995C402.26 302.341 400.482 304.46 399.305 306.928C396.912 311.917 397.109 317.931 394.246 322.67C392.445 325.646 389.536 327.902 388.039 331.045C386.383 334.523 386.618 338.73 384.674 342.049C373.94 360.357 376.598 388.484 369.1 408.334C363.441 423.323 355.943 438.564 342.694 447.578C331.428 455.247 316.957 457.472 303.526 455.118C290.102 452.764 277.682 446.104 267.138 437.47C262.192 415.707 248.062 392.379 236.546 373.259C231.167 364.336 225.796 355.413 220.418 346.491C218.093 342.626 215.708 338.7 212.312 335.731C205.787 330.028 196.618 328.745 188.01 327.697C183.088 327.097 177.983 326.52 173.273 328.069C165.517 330.62 160.731 338.206 156.765 345.337C134.666 385.059 117.65 428.366 113.7 473.639C112.431 488.219 112.507 502.973 109.673 517.333C108.177 524.927 105.86 532.391 105.26 540.106C104.356 551.641 107.311 563.085 110.236 574.278C110.745 576.237 111.93 578.675 113.935 578.371C112.492 582.008 113.996 586.299 116.708 589.116C119.42 591.933 123.135 593.55 126.812 594.864C143.57 600.863 161.984 602.162 179.419 598.57C213.08 591.637 247.295 605.207 281.625 606.87C296.833 607.606 312.156 608.039 327.205 605.753C349.835 602.314 368.759 611.836 389.642 602.465" stroke="url(#paint46_linear_1_105)" stroke-width="3" stroke-miterlimit="10"/>
<path d="M306.997 188.535C309.079 190.593 311.183 192.446 312.642 194.982C316.038 200.867 315.916 207.952 318.286 214.323C321.272 222.357 324.743 230.976 325.199 239.542C325.275 240.962 325.169 242.382 325.024 243.794C324.683 247.113 324.136 250.408 323.391 253.658C322.054 259.468 317.891 269.355 314.845 274.48C309.877 282.841 304.832 291.308 297.881 298.112C290.93 304.916 281.723 309.965 271.992 309.882C258.865 309.768 243.565 306.237 231.084 302.167C228.06 301.18 225.022 300.192 222.203 298.719C218.321 296.699 214.956 293.837 211.629 290.989C208.058 287.936 204.473 284.884 201.198 281.512C196.686 276.872 192.774 271.648 187.904 267.38C186.408 266.066 184.812 264.836 183.635 263.242C182.48 261.677 181.774 259.832 180.832 258.124C179.092 254.972 176.547 252.276 175.111 248.973C174.002 246.437 173.607 243.658 173.007 240.954C170.485 229.655 164.332 219.555 158.277 209.684C150.954 197.754 158.429 181.207 164.62 168.655C167.621 162.573 171.184 156.688 175.962 151.881C181.249 146.558 187.828 142.723 194.483 139.252C206.615 132.927 220.258 127.498 233.674 130.163C245.214 132.456 254.755 140.399 263.096 148.691C271.437 156.984 279.353 166.058 289.677 171.693C293.141 173.583 297.114 175.338 298.763 178.914C300.457 182.597 304.126 185.688 307.013 188.543L306.997 188.535Z" fill="#CA9A7E" stroke="#794D36" stroke-miterlimit="10"/>
<mask id="mask1_1_105" style="mask-type:luminance" maskUnits="userSpaceOnUse" x="151" y="200" width="124" height="107">
<path d="M246.323 295.705C315.278 327.385 234.753 281.064 236.272 278.027C236.713 277.153 243.018 274.161 246.908 260.561C247.121 259.809 246.338 250.135 242.099 248.912C239.076 248.039 235.68 249.391 232.755 248.244C230.119 247.212 228.607 244.387 228 241.623C227.392 238.858 227.483 235.98 226.891 233.209C225.994 229.032 223.609 225.319 220.882 222.031C214.478 214.301 205.939 208.362 196.466 205.044C193.26 203.92 189.834 203.024 187.319 200.746C177.672 199.311 164.62 200.814 156.583 206.327C155.125 207.322 153.689 208.484 152.944 210.086C152.344 211.385 152.261 212.85 152.177 214.278C151.721 222.752 151.265 231.318 152.762 239.679C156.355 259.741 171.237 276.667 189.378 285.97C207.527 295.272 225.971 297.056 246.323 295.697V295.705Z" fill="white"/>
</mask>
<g mask="url(#mask1_1_105)">
<path d="M306.846 188.551C308.927 190.608 311.031 192.461 312.49 194.998C315.886 200.883 315.764 207.968 318.134 214.339C321.12 222.373 324.592 230.992 325.047 239.557C325.123 240.977 325.017 242.397 324.873 243.81C324.531 247.128 323.984 250.424 323.239 253.674C321.902 259.483 317.739 269.37 314.693 274.496C309.725 282.856 304.681 291.323 297.73 298.127C290.771 304.923 281.571 309.981 271.84 309.897C258.713 309.783 243.413 306.252 230.932 302.182C227.908 301.195 224.87 300.208 222.051 298.734C218.169 296.715 214.804 293.852 211.477 291.004C207.906 287.952 204.321 284.899 201.046 281.527C196.534 276.888 192.622 271.663 187.752 267.395C186.256 266.082 184.66 264.852 183.483 263.257C182.328 261.693 181.622 259.847 180.68 258.139C178.94 254.987 176.395 252.292 174.959 248.988C173.85 246.452 173.455 243.673 172.855 240.97C170.333 229.67 164.18 219.571 158.125 209.699C150.802 197.769 158.277 181.223 164.468 168.67C167.469 162.588 171.032 156.703 175.81 151.896C181.098 146.573 187.676 142.738 194.331 139.268C206.463 132.942 220.107 127.513 233.522 130.178C245.062 132.471 254.603 140.414 262.944 148.707C271.286 156.999 279.201 166.073 289.525 171.708C292.989 173.599 296.962 175.353 298.611 178.929C300.305 182.612 303.974 185.703 306.861 188.558L306.846 188.551Z" fill="#C69C6D"/>
<path d="M307.172 188.809C309.254 190.867 311.358 192.719 312.817 195.256C316.212 201.141 316.091 208.226 318.461 214.597C321.447 222.631 324.918 231.25 325.374 239.815C325.45 241.235 325.344 242.655 325.199 244.068C324.857 247.386 324.311 250.682 323.566 253.932C322.229 259.741 318.066 269.628 315.02 274.754C310.052 283.114 305.007 291.581 298.056 298.385C291.098 305.182 281.898 310.239 272.167 310.155C259.04 310.041 243.74 306.51 231.259 302.44C228.235 301.453 225.196 300.466 222.378 298.993C218.496 296.973 215.131 294.11 211.803 291.262C208.233 288.21 204.647 285.157 201.373 281.785C196.861 277.146 192.948 271.921 188.079 267.654C186.582 266.34 184.987 265.11 183.81 263.515C182.655 261.951 181.948 260.106 181.006 258.397C179.267 255.246 176.722 252.55 175.286 249.247C174.177 246.71 174.504 243.658 173.182 241.228C167.15 230.194 161.073 221.082 156.515 211.21C150.65 198.498 158.604 181.481 164.795 168.929C167.796 162.846 171.359 156.961 176.137 152.154C181.424 146.831 188.003 142.996 194.658 139.526C206.79 133.2 220.433 127.771 233.849 130.436C245.388 132.73 254.93 140.673 263.271 148.965C271.612 157.257 279.528 166.332 289.852 171.966C293.316 173.857 297.289 175.611 298.938 179.188C300.632 182.871 304.301 185.961 307.188 188.816L307.172 188.809Z" fill="#A87559"/>
</g>
<mask id="mask2_1_105" style="mask-type:luminance" maskUnits="userSpaceOnUse" x="120" y="275" width="301" height="227">
<path d="M159.865 387.785C177.656 393.86 199.01 397.961 213.885 386.479C217.288 383.852 221.953 380.389 225.249 383.161C222.507 376.698 218.283 370.874 213.004 366.257C217.448 367.654 221.884 369.059 226.328 370.456C218.8 364.7 212.472 357.373 207.861 349.088C210.383 354.236 215.024 358.299 220.456 360.137C213.627 347.653 202.771 337.409 189.91 331.311C203.417 334.523 215.913 341.859 225.287 352.087C225.257 345.177 222.492 338.32 217.729 333.308C229.124 343.803 240.519 354.305 251.914 364.799C250.957 355.353 248.518 346.066 244.72 337.363C256.335 346.772 269.872 353.811 284.245 357.904C286.038 358.413 287.953 358.876 289.73 358.352C292.161 357.631 293.68 355.292 295.238 353.287C305.493 340.112 325.04 335.905 333.236 321.363C335.272 317.756 336.457 313.671 336.678 309.533C336.754 308.15 336.716 306.761 336.678 305.371C336.503 298.347 336.336 291.331 336.161 284.306C337.908 284.215 339.663 284.124 341.411 284.033C337.096 285.962 334.505 291.125 335.546 295.742C336.587 300.359 341.137 303.913 345.862 303.807C346.174 298.62 349.607 293.745 354.393 291.71C353.292 295.302 354.051 299.418 356.376 302.372C356.558 298.195 356.741 294.011 356.923 289.835C357.007 297.064 357.759 304.293 359.172 311.385C359.757 314.301 362.279 318.03 364.755 316.39C368.637 311.196 372.595 305.85 374.357 299.608C376.12 293.366 375.201 285.939 370.422 281.557C375.527 291.406 379.759 301.703 383.04 312.297C384.453 305.667 385.866 299.03 387.279 292.401C388.054 288.764 387.409 283.312 383.694 283.532C389.923 289.538 393.645 298.058 393.82 306.708C395.605 297.049 397.383 287.382 399.168 277.723L394.344 275.657C400.186 286 404.554 297.178 407.289 308.735C408.079 312.069 408.732 315.516 408.17 318.896C406.97 326.125 400.498 331.577 399.077 338.76C396.357 352.543 412.804 363.63 412.85 377.678C412.857 381.11 411.87 384.611 412.766 387.922C413.678 391.301 416.39 393.86 418.076 396.928C422.49 404.947 419.436 414.765 418.023 423.809C415.288 441.305 418.714 461.109 407.973 475.196C403.81 480.656 397.778 484.733 394.724 490.892C393.554 493.246 392.833 495.888 391.078 497.84C388.138 501.098 383.246 501.5 378.855 501.568C339.018 502.191 299.53 493.846 261.311 482.584C233.651 474.429 206.258 464.633 181.447 449.939C163.002 439.02 145.553 424.736 136.543 405.288C134.158 400.14 132.403 394.703 129.759 389.684C128.635 387.55 127.358 385.507 125.93 383.563C124.715 381.9 121.471 379.485 120.833 377.64C119.481 373.752 125.003 374.519 127.465 375.347C138.396 379.022 148.903 384.049 159.842 387.785H159.865Z" fill="white"/>
</mask>
<g mask="url(#mask2_1_105)">
<path d="M188.155 263.978C186.4 270.812 187.395 278.247 190.882 284.458C193.685 289.44 197.939 293.533 202.133 297.542C210.413 305.455 218.694 313.375 226.966 321.288C251.906 345.132 276.846 368.983 301.786 392.827C297.661 388.119 290.475 385.674 284.025 386.001C295.086 399.829 313.911 407.734 332.158 406.2C316.919 406.648 301.574 403.504 287.884 397.141C307.37 409.921 321.34 430.021 326.02 452.027C320.041 449.241 314.07 446.454 308.091 443.674C310.492 453.265 319.722 460.396 329.78 462.932C339.838 465.461 350.572 464.048 360.577 461.345C347.176 465.096 332.948 466.144 319.099 464.405C311.472 463.448 302.607 461.33 299.302 454.746C305.623 463.061 304.984 475.499 297.836 483.192C295.018 486.229 291.044 489.259 291.531 493.284C300.677 480.861 300.32 462.871 290.687 450.782C293.415 458.148 291.948 466.782 286.912 472.963C290.543 456.66 280.827 438.572 264.775 431.752C260.096 429.763 254.96 428.631 250.698 425.92C244.241 421.797 240.732 414.629 238.574 407.544C236.417 400.459 235.262 393.04 232.018 386.342C228.774 379.645 218.542 373.031 212.115 368.854C205.05 364.26 194.437 369.788 187.137 365.536C182.473 362.817 180.93 357.099 177.14 353.355C172.316 348.594 164.666 347.736 157.707 347.88C150.749 348.025 143.517 348.852 137.029 346.46C130.99 344.236 126.424 339.52 122.086 334.956C118.326 331 114.444 326.831 113.024 321.682C111.74 317.012 112.636 312.084 113.548 307.33C115.47 297.269 117.384 287.2 119.306 277.138C113.988 282.59 106.065 285.666 98.2328 285.316C104.751 285.21 111.155 282.226 115.219 277.396C119.283 272.567 120.932 265.998 119.587 259.954C112.104 263.447 103.117 263.94 95.2549 261.298C105.093 265.315 117.946 260.067 121.615 250.53C125.285 241 112.591 224.635 104.447 218.044C98.5139 213.237 97.2452 205.158 96.364 197.807C95.7715 192.871 95.3384 187.373 98.5291 183.425C101.811 179.362 108.108 178.102 110.912 173.728C114.254 168.518 111.056 161.957 110.023 155.943C108.352 146.239 113.244 135.797 121.957 130.451C117.688 128.09 116.26 122.106 119.04 118.233C117.126 122.091 120.324 126.996 124.662 128.128C128.999 129.259 133.717 127.376 136.976 124.43C140.235 121.483 142.347 117.618 144.481 113.859C146.616 110.1 148.91 106.288 152.412 103.608C155.914 100.927 166.39 97.1608 170.485 98.9377C176.479 92.5059 185.883 89.8101 194.924 89.3165C203.964 88.8229 215.275 84.9122 224.33 85.2311C233.386 85.5501 242.874 84.6616 250.531 80.075C258.189 75.4961 263.408 66.4065 260.832 58.1825C258.257 49.9586 246.194 45.1822 239.319 50.7635C247.956 50.6117 256.282 56.6486 258.371 64.5916C260.46 72.527 256.1 81.571 248.404 85.2691C259.974 87.9041 273.078 81.3204 277.272 70.7728C275.365 80.0599 270.594 88.8078 263.689 95.6572C267.145 91.2909 273.192 88.8989 278.905 89.6279C284.618 90.3645 289.768 94.1917 291.88 99.2794C293.164 102.378 293.361 105.795 294.653 108.893C297.707 116.221 307.187 121.035 315.498 121.339C323.809 121.643 331.869 118.932 339.694 116.251C348.719 124.733 344.449 141.857 332.363 145.608C338.759 144.264 342.322 136.466 339.473 130.884C336.625 125.303 328.587 122.972 322.647 125.584C316.706 128.196 313.394 134.97 314.503 141.09C315.612 147.203 320.702 152.351 326.87 154.432C334.323 156.946 342.512 155.321 350.367 154.47C358.23 153.62 364.064 158.449 369.731 163.674C373.689 167.326 375.261 172.756 375.634 177.98C376.006 183.204 375.345 188.459 375.634 193.684C375.922 198.908 377.297 204.36 381.073 208.18C384.848 212 391.503 213.602 396.076 210.663C400.65 207.724 400.771 199.873 395.704 197.769C401.774 202.135 403.969 210.701 400.688 217.216C397.398 223.732 388.989 227.498 381.582 225.767C385.882 231.477 394.238 234.12 401.295 232.001C408.353 229.883 413.579 223.162 413.61 216.146C411.004 230.088 398.31 241.797 383.534 243.908C387.112 251.046 397.618 254.099 404.813 250.097C412.007 246.095 414.301 235.92 409.462 229.48C414.711 238.448 413.784 250.332 407.206 258.473C400.627 266.613 388.746 270.554 378.232 268.086C387.743 271.45 396.395 278.414 398.902 287.731C400.969 295.401 398.682 303.488 395.811 310.922C392.939 318.356 389.414 325.745 388.913 333.65C388.411 341.547 391.761 350.318 399.297 353.743C397.14 354.267 394.982 354.798 392.825 355.322C390.28 361.162 394.998 375.939 399.806 380.313C404.615 384.687 410.449 388.848 411.9 395.007C413.435 401.53 409.469 408.03 405.132 413.3C400.794 418.577 395.735 423.809 394.527 430.393C393.319 436.977 398.355 445.056 405.359 444.274C393.752 441.487 387.181 427.158 392.954 417.218C395.583 412.692 400.11 409.336 402.549 404.711C407.631 395.09 400.232 381.718 388.981 380.207C393.364 387.527 392.202 396.746 389.194 404.658C386.185 412.571 381.491 419.868 378.885 427.918C371.509 450.721 381.893 474.93 392.088 496.739C389.802 478.955 377.958 463.836 369.458 447.836C360.957 431.836 356.027 411.424 366.966 396.814C360.144 408.926 344.123 415.646 330.069 412.29C343.067 410.361 354.963 402.616 361.527 391.817C353.246 395.531 344.958 399.244 336.678 402.957C343.978 402.297 347.268 393.579 346.227 386.707C345.186 379.835 341.585 373.274 342.026 366.341C342.877 352.862 358.625 342.132 356.027 328.858C354.644 321.796 348.4 316.686 343.006 311.636C337.612 306.586 332.401 299.911 333.928 292.872C335.174 287.124 340.507 283.152 344.753 278.869C349 274.594 348.711 269.673 345.604 264.586C342.793 259.984 336.169 259.133 331.831 255.762C326.286 251.456 325.351 243.939 324.318 237.218C322.525 225.494 319.243 213.974 314.571 202.986C312.216 197.443 309.375 191.869 304.612 187.951C299.857 184.032 296.978 181.709 290.885 183.25C276.937 186.773 274.977 179.529 273.451 174.236C271.924 168.944 265.854 166.643 265.094 159.049C264.547 153.582 263.005 148.608 259.017 144.621C257.497 143.102 253.069 139.306 245.464 141.66C250.66 140.065 250.66 141.584 254.839 144.697C258.485 147.416 259.799 152.496 258.637 156.771C257.505 160.94 257.566 161.023 255.803 164.995C254.041 168.966 254.77 174.738 259.116 176.006C249.794 169.354 240.473 162.702 231.145 156.042C236.721 161.13 242.289 166.225 247.865 171.313C230.385 169.832 214.789 156.475 211.477 140.156C206.212 150.248 206.546 162.785 212.343 172.611C218.139 182.438 229.23 189.279 241.066 190.327C225.219 193.874 207.405 187.404 198.145 174.722C202.984 186.151 210.709 196.478 220.494 204.588C211.431 202.31 202.361 200.024 193.298 197.746C199.421 201.961 205.551 206.175 211.674 210.397C198.35 213.587 183.665 211.347 172.08 204.338C175.719 208.537 180.824 212.569 185.861 213.587C174.017 215.789 170.751 213.184 163.192 212.979C168.062 215.789 170.462 218.5 174.101 221.264C166.36 220.618 168.32 219.851 162.106 219.009C171.077 233.171 173.394 247.06 182.359 261.214C183.703 261.822 186.81 263.348 188.162 263.955L188.155 263.978Z" fill="#A09365"/>
</g>
<mask id="mask3_1_105" style="mask-type:luminance" maskUnits="userSpaceOnUse" x="166" y="113" width="120" height="105">
<path d="M268.292 156.422C268.68 165.42 268.429 174.457 267.548 183.41C267.297 185.969 269.804 187.662 271.559 186.075C276.36 181.739 280.705 176.735 284.489 171.199C285.203 170.159 285.195 168.67 284.489 167.63C280.835 162.269 276.763 157.287 272.349 152.762C272.334 152.746 272.326 152.739 272.311 152.724C270.655 151.038 268.072 152.549 268.186 155.108C268.611 164.646 270.807 173.416 267.32 182.696C266.857 183.934 266.256 185.224 265.14 185.931C263.203 187.153 260.68 186.166 258.652 185.095C250 180.539 241.924 174.882 234.692 168.306C232.611 168.746 232.975 171.86 234.039 173.705C237.252 179.279 242.175 183.85 247.971 186.652C237.662 189.887 226.556 190.563 215.928 188.619C221.17 195.802 227.141 202.447 233.72 208.431C226.488 209.501 219.256 210.572 212.024 211.643C214.075 213.177 215.906 215.007 217.44 217.065C206.037 217.596 193.465 217.763 184.653 210.504C179.024 205.864 175.909 198.893 173.455 192.028C171.123 185.498 169.216 178.823 167.743 172.049C166.573 166.658 165.676 161.145 166.124 155.647C166.861 146.603 171.153 138.288 175.362 130.246C176.585 127.915 177.854 125.516 179.852 123.799C181.872 122.06 184.463 121.164 187.008 120.382C199.269 116.578 212.024 114.345 224.854 113.761C231.129 113.472 237.503 113.594 243.58 115.181C249.529 116.737 255.029 119.661 260.817 121.726C265.383 123.359 270.207 124.483 274.332 127.034C280.379 130.77 284.428 137.567 284.83 144.659C280.576 147.499 277.15 151.554 275.061 156.217" fill="white"/>
</mask>
<g mask="url(#mask3_1_105)">
<path d="M274.947 159.444C277.028 161.502 279.133 163.355 280.591 165.891C283.987 171.776 283.865 178.861 286.236 185.232C289.221 193.266 292.693 201.885 293.149 210.451C293.225 211.871 293.118 213.291 292.974 214.703C292.632 218.021 292.085 221.317 291.341 224.567C290.004 230.376 285.841 240.263 282.794 245.389C277.826 253.75 272.782 262.217 265.831 269.02C258.88 275.824 249.673 280.874 239.941 280.791C226.814 280.677 211.515 277.146 199.033 273.075C196.01 272.088 192.971 271.101 190.153 269.628C186.271 267.608 182.905 264.745 179.578 261.898C176.008 258.845 172.422 255.792 169.148 252.421C164.635 247.781 160.723 242.557 155.854 238.289C154.357 236.975 152.762 235.745 151.584 234.15C150.43 232.586 149.723 230.741 148.781 229.032C147.041 225.881 144.497 223.185 143.061 219.882C141.952 217.346 141.557 214.566 140.956 211.863C138.434 200.564 132.281 190.464 126.226 180.592C118.903 168.663 126.378 152.116 132.57 139.564C135.57 133.481 139.133 127.596 143.912 122.789C149.199 117.466 155.778 113.631 162.432 110.161C174.564 103.836 188.208 98.4062 201.624 101.072C213.163 103.365 222.705 111.308 231.046 119.6C239.387 127.892 247.303 136.967 257.626 142.601C261.091 144.492 265.064 146.246 266.712 149.823C268.406 153.506 272.075 156.596 274.962 159.452L274.947 159.444Z" fill="#A87559"/>
</g>
<path d="M258.303 230.194C258.903 230.452 258.622 233.429 258.303 233.991C257.543 236.269 257.156 237.765 253.745 240.066C254.527 237.689 253.866 233.034 251.557 232.062C249.247 231.09 246.642 231.303 244.142 231.477C243.633 231.515 243.079 231.538 242.638 231.272C241.749 230.741 241.537 229.184 240.496 229.169C237.951 229.807 237.366 229.275 234.753 229.435C237.032 228.675 237.374 228.296 239.607 227.567C242.281 226.693 244.332 226.952 247.151 227.415C253.456 228.44 252.43 227.688 258.303 230.194Z" fill="#A87559"/>
<path d="M237.245 206.228C239.182 198.658 244.051 191.876 250.607 187.616C254.261 185.247 258.554 183.622 262.891 183.903C263.096 185.483 260.612 191.649 259.883 193.061C256.829 198.954 251.223 203.472 244.803 205.196C244.515 205.272 243.223 205.416 242.927 205.469C242.433 205.568 241.94 205.659 241.446 205.758C240.086 206.023 238.673 206.304 237.556 207.132C237.495 207.178 237.435 207.223 237.366 207.223C237.154 207.231 237.116 206.927 237.154 206.722C237.359 205.629 237.647 204.543 238.012 203.487" fill="#F2F2F2"/>
<path d="M194.149 209.479C189.507 211.324 184.334 214.042 179.799 216.131C177.406 217.232 173.843 220.17 172.384 222.365C170.774 224.78 171.579 227.202 171.237 230.703C170.994 233.231 170.66 235.821 171.305 238.281C172.027 235.244 172.749 232.206 173.471 229.169C173.66 228.379 173.858 227.559 174.375 226.936C174.853 226.352 175.56 226.002 176.236 225.668C180.809 223.42 185.542 221.401 190.115 219.145C192.819 217.816 195.759 216.73 198.297 215.508C197.134 213.458 195.653 211.293 194.149 209.479Z" fill="#1B0706"/>
<path d="M220.699 577.604C227.278 577.103 246.292 573.572 252.879 573.959C256.389 574.164 259.784 575.554 263.157 576.837C297.76 589.997 334.308 592.981 370.407 591.675C375.398 591.493 380.731 591.341 384.978 594.69C383.382 570.77 382.904 546.736 383.55 522.747C338.972 525.967 294.965 543.478 250.471 538.831C248.45 538.929 245.958 537.919 244.013 537.175C240.868 548.49 236.698 557.564 229.823 566.973C228.144 569.274 222.69 576.146 220.707 577.604H220.699Z" fill="#CA9A7E" stroke="#794D36" stroke-miterlimit="10"/>
<path d="M224.718 237.826C224.68 239.686 224.695 241.547 224.756 243.407C224.778 244.022 224.809 244.66 225.075 245.214C225.622 246.338 227.004 246.832 227.658 247.902C228.106 248.631 228.151 249.535 228.463 250.332C228.911 251.487 229.914 252.375 231.046 252.869C232.178 253.362 233.446 253.491 234.685 253.446" stroke="#794D36" stroke-miterlimit="10"/>
<path d="M244.188 240.878L244.249 238.714C245.153 237.947 246.08 237.173 247.181 236.74C248.283 236.307 249.604 236.254 250.592 236.899C250.865 237.082 251.116 237.325 251.223 237.636C251.329 237.947 251.245 238.334 250.979 238.524C250.873 238.6 250.744 238.638 250.615 238.676C249.073 239.124 247.531 239.572 245.996 240.02" fill="#9F6F54"/>
<path d="M244.188 240.878L244.249 238.714C245.153 237.947 246.08 237.173 247.181 236.74C248.283 236.307 249.604 236.254 250.592 236.899C250.865 237.082 251.116 237.325 251.223 237.636C251.329 237.947 251.245 238.334 250.979 238.524C250.873 238.6 250.744 238.638 250.615 238.676C249.073 239.124 247.531 239.572 245.996 240.02" stroke="#794D36" stroke-miterlimit="10"/>
<path d="M231.562 246.969C233.484 247.508 235.49 247.751 237.48 247.69C237.814 247.682 238.156 247.66 238.475 247.781C238.794 247.903 239.068 248.191 239.053 248.525" stroke="#794D36" stroke-miterlimit="10"/>
<path d="M243.451 231.075C246.672 231.326 249.893 231.591 253.114 231.88C253.494 231.91 253.904 231.963 254.193 232.214C254.421 232.419 254.527 232.715 254.611 233.011C255.348 235.57 254.915 238.433 253.456 240.658" stroke="#794D36" stroke-miterlimit="10"/>
<path d="M247.28 268.793C249.263 264.912 251.755 260.584 255.918 259.756C257.596 257.888 258.668 257.364 259.822 256.536C260.977 255.709 263.613 254.205 264.98 253.864C271.498 252.223 274.704 251.251 281.23 249.611C280.964 257.691 275.813 264.639 270.693 270.767C267.761 274.283 265.945 275.619 262.185 278.163C258.424 280.707 253.54 281.952 249.134 281.14C246.703 280.692 238.134 279.409 238.931 277.973C239.729 276.538 242.335 275.224 243.459 273.782C244.636 272.278 246.407 270.509 247.273 268.808L247.28 268.793Z" fill="#C1737D"/>
<path d="M282.544 248.426C282.012 248.388 281.723 248.852 281.26 249.307C280.736 249.778 280.333 250.188 279.862 250.629C277.614 252.664 275.289 254.615 273.109 256.703C270.754 258.784 268.3 260.652 265.603 262.368C263.051 263.872 259.26 266.659 256.138 265.026L259.837 264.031C259.009 265.406 257.885 267.061 256.806 268.246C252.028 273.607 245.335 277.465 238.21 278.528L238.103 278.247C245.829 275.111 253.069 269.894 257.255 262.573L257.391 262.323L257.657 262.467C258.599 262.801 259.936 262.042 260.855 261.639C266.34 258.89 270.936 254.752 276.102 251.479C277.933 250.34 279.832 249.33 281.655 248.199C281.944 248.054 282.339 247.986 282.673 248.145L282.552 248.426H282.544Z" fill="#64383E"/>
<path d="M265.186 287.906C267.434 281.497 275.038 276.933 281.754 278.019C279.467 280.654 276.968 282.355 274.142 284.086C271.271 285.742 268.589 287.131 265.186 287.906Z" fill="#A87559"/>
<path d="M257.991 280.411C260.681 280.039 263.195 278.93 265.231 277.222C266.956 275.672 268.771 274.154 270.541 272.673L274.454 269.385C272.79 272.422 270.245 274.875 267.639 277.092C265.102 279.477 261.486 281.132 257.984 280.403L257.991 280.411Z" fill="#C1737D"/>
<path d="M266.583 251.73C262.595 252.124 258.804 254.243 256.396 257.432C256.039 257.903 255.69 258.42 255.165 258.701C254.816 258.89 254.413 258.959 254.049 259.095C253.464 259.316 253.054 259.581 252.567 259.984C251.755 260.652 247.911 264.426 245.966 267.836" stroke="#A87559" stroke-width="0.75" stroke-miterlimit="10"/>
<path d="M214.044 188.96C219.423 181.245 230.127 169.513 236.903 162.998C237.731 162.208 238.574 161.411 239.592 160.879C241.119 160.082 242.897 159.938 244.621 159.816C248.799 159.512 253.145 159.239 257.049 160.758C253.851 160.849 250.721 161.601 247.622 162.367C247.014 162.519 246.399 162.671 245.852 162.983C245.381 163.248 244.986 163.613 244.606 163.993C237.731 170.781 229.564 187.29 221.831 193.076C220.122 193.198 219.187 191.694 217.584 191.102C216.825 190.821 216.126 190.396 215.435 189.97C214.599 189.454 214.88 189.469 214.044 188.953V188.96Z" fill="#1B0706"/>
<path d="M209.684 227.255C201.328 228.015 190.457 237.848 189.044 246.779C192.789 246.133 195.121 245.594 198.714 244.364C200.044 243.908 204.974 240.521 205.969 239.527C207.58 237.917 208.643 235.76 210.003 233.885C211.363 232.009 212.92 229.374 214.455 227.506C214.523 227.43 214.584 227.316 214.538 227.232C214.5 227.164 214.409 227.149 214.333 227.134C213.087 226.959 212.084 227.035 209.692 227.255H209.684Z" fill="#E2EBED"/>
<path d="M186.483 247.341C178.591 238.722 192.439 222.509 202.535 225.44L202.626 225.813C197.879 227.05 194.019 230.285 191.034 234.082C189.492 235.943 188.086 237.947 187.236 240.195C186.408 242.42 186.126 244.926 186.841 247.219L186.483 247.341Z" fill="#794D36"/>
<path d="M207.496 239.048C203.371 245.655 196.42 250.439 188.763 251.92" stroke="#8C6239" stroke-width="0.5" stroke-miterlimit="10"/>
<path d="M204.298 228.599C201.966 229.025 200.021 230.407 198.342 231.979C194.924 235.191 191.915 238.95 187.767 241.364C185.694 242.595 183.339 243.475 180.854 243.658L180.938 242.185C184.698 242.929 188.611 242.336 192.227 241.205C190.662 243.126 188.846 245.146 186.689 246.384C185.2 247.295 183.589 247.994 181.903 248.434L181.85 247.272C183.756 247.675 185.838 247.409 187.585 246.483L188.033 247.227C186.605 248.07 185.101 248.829 183.475 249.285C181.88 249.733 180.064 249.793 178.591 248.981C180.14 249.588 181.834 249.376 183.331 248.821C184.843 248.259 186.218 247.394 187.578 246.498L188.026 247.242C186.149 248.411 183.832 248.829 181.629 248.457L179.198 248.047C181.47 247.356 183.999 246.589 185.959 245.245C187.312 244.364 188.527 243.286 189.568 242.071L190.32 243.255C187.19 244.136 183.855 244.28 180.665 243.665L175.111 242.595L180.748 242.2C182.951 242.048 185.109 241.296 187.091 240.21C191.156 237.978 194.285 234.401 197.909 231.5C199.747 230.057 201.905 228.751 204.29 228.622L204.298 228.599Z" fill="black"/>
<mask id="mask4_1_105" style="mask-type:luminance" maskUnits="userSpaceOnUse" x="189" y="227" width="26" height="20">
<path d="M209.684 227.255C201.328 228.015 190.457 237.849 189.044 246.779C192.789 246.133 195.121 245.594 198.714 244.364C200.044 243.908 204.974 240.521 205.969 239.527C207.58 237.917 208.643 235.76 210.003 233.885C211.363 232.009 212.92 229.374 214.455 227.506C214.523 227.43 214.584 227.316 214.538 227.233C214.5 227.164 214.409 227.149 214.333 227.134C213.087 226.959 212.084 227.035 209.692 227.255H209.684Z" fill="white"/>
</mask>
<g mask="url(#mask4_1_105)">
<path d="M200.948 243.103C204.514 243.103 207.405 240.213 207.405 236.649C207.405 233.084 204.514 230.194 200.948 230.194C197.381 230.194 194.49 233.084 194.49 236.649C194.49 240.213 197.381 243.103 200.948 243.103Z" fill="#563421" stroke="#2E1A14" stroke-width="4" stroke-miterlimit="10"/>
</g>
<path d="M211.074 226.405C201.289 228.979 191.908 236.33 190.046 246.665L189.18 245.814C191.285 245.465 193.351 245.07 195.394 244.539C197.438 243.992 199.345 243.498 201.168 242.276C202.915 241.167 204.852 240.089 206.349 238.684C207.83 237.211 208.886 235.297 210.269 233.657C208.643 236.398 207.215 239.519 204.397 241.319C202.589 242.633 200.978 243.977 198.851 244.842C195.812 245.959 192.614 246.748 189.439 247.28L188.413 247.462L188.573 246.429C190.365 235.601 200.56 227.779 211.074 226.405Z" fill="black"/>
<path d="M200.948 238.547C201.997 238.547 202.847 237.697 202.847 236.649C202.847 235.6 201.997 234.75 200.948 234.75C199.899 234.75 199.049 235.6 199.049 236.649C199.049 237.697 199.899 238.547 200.948 238.547Z" fill="black"/>
<path d="M207.899 232.797C208.948 232.797 209.798 231.947 209.798 230.898C209.798 229.85 208.948 229 207.899 229C206.85 229 206 229.85 206 230.898C206 231.947 206.85 232.797 207.899 232.797Z" fill="white"/>
<path d="M236.766 206.342C239.038 194.694 249.939 182.825 262.466 183.281L263.112 183.326L263.157 183.926C263.089 186.561 261.889 188.93 260.969 191.337C258.174 198.339 251.686 203.745 244.333 205.31C253.639 202.174 259.123 194.975 261.44 185.657C261.562 185.179 261.699 184.549 261.676 184.116L262.367 184.761C250.501 184.48 240.094 195.628 236.766 206.335V206.342Z" fill="black"/>
<path d="M268.429 191.542C267.464 193.266 265.998 194.656 264.54 195.992C262.002 198.301 259.374 200.533 256.404 202.257C253.433 203.981 250.106 205.173 246.68 205.264" stroke="#A67C52" stroke-width="0.5" stroke-miterlimit="10"/>
<path d="M256.837 180.645C246.832 184.359 240.246 189.56 234.404 198.491L234.107 198.43C235.581 190.639 241.522 183.896 249.08 181.488C251.572 180.645 254.216 180.251 256.844 180.349V180.653L256.837 180.645Z" fill="#794D36"/>
<path d="M242.282 194.884C242.836 192.606 244.477 190.745 246.209 189.211C249.658 186.219 253.677 183.827 256.556 180.281C257.953 178.55 259.063 176.598 259.625 174.495L261.144 168.853L261.083 174.7C261.053 177.942 260.278 181.169 258.835 184.07L257.809 183.113C259.169 182.331 260.43 181.344 261.516 180.19C263.18 178.512 264.411 176.12 265.512 174.031L265.421 176.59C265.345 178.808 264.517 180.98 263.028 182.612L262.375 182.035C263.499 180.873 264.593 179.689 265.413 178.314C266.226 176.955 266.75 175.353 266.477 173.72C266.963 175.322 266.568 177.069 265.839 178.542C265.11 180.046 264.092 181.382 263.013 182.62L262.36 182.043C263.583 180.501 264.228 178.512 264.213 176.575L265.345 176.849C264.616 178.398 263.651 179.833 262.512 181.109C260.931 182.992 258.614 184.397 256.457 185.581C258.242 182.233 259.556 178.504 259.587 174.677L261.045 174.882C260.407 177.236 259.131 179.355 257.581 181.154C254.512 184.746 250.334 186.986 246.612 189.72C244.788 191.064 243.117 192.712 242.274 194.884H242.282Z" fill="black"/>
<mask id="mask5_1_105" style="mask-type:luminance" maskUnits="userSpaceOnUse" x="237" y="183" width="26" height="25">
<path d="M237.245 206.228C239.182 198.658 244.051 191.876 250.607 187.616C254.261 185.247 258.554 183.622 262.891 183.903C263.096 185.483 260.612 191.649 259.883 193.061C256.829 198.954 251.223 203.472 244.803 205.196C244.515 205.272 243.223 205.416 242.927 205.469C242.433 205.568 241.94 205.659 241.446 205.758C240.086 206.023 238.673 206.304 237.556 207.132C237.495 207.178 237.435 207.223 237.366 207.223C237.154 207.231 237.116 206.927 237.154 206.722C237.359 205.629 237.647 204.543 238.012 203.487" fill="white"/>
</mask>
<g mask="url(#mask5_1_105)">
<path d="M250.326 201.338C253.893 201.338 256.784 198.448 256.784 194.884C256.784 191.319 253.893 188.429 250.326 188.429C246.76 188.429 243.869 191.319 243.869 194.884C243.869 198.448 246.76 201.338 250.326 201.338Z" fill="#563421" stroke="#2E1A14" stroke-width="4" stroke-miterlimit="10"/>
</g>
<path d="M250.326 196.782C251.375 196.782 252.226 195.932 252.226 194.884C252.226 193.835 251.375 192.985 250.326 192.985C249.278 192.985 248.427 193.835 248.427 194.884C248.427 195.932 249.278 196.782 250.326 196.782Z" fill="black"/>
<path d="M255.899 190.797C256.948 190.797 257.798 189.947 257.798 188.898C257.798 187.85 256.948 187 255.899 187C254.85 187 254 187.85 254 188.898C254 189.947 254.85 190.797 255.899 190.797Z" fill="white"/>
<path opacity="0.5" d="M234.73 233.292C234.548 233.345 234.366 233.406 234.198 233.497C234.039 233.588 233.902 233.725 233.765 233.854C232.953 234.636 232.147 235.426 231.342 236.216C230.856 234.91 230.848 233.262 231.874 232.32C232.459 231.781 233.272 231.568 234.047 231.401C234.829 231.227 238.042 230.414 237.45 232.184C237.161 233.049 235.475 233.072 234.715 233.3L234.73 233.292Z" fill="white"/>
<path opacity="0.3" d="M271.369 194.253C270.336 195.521 269.295 196.797 268.452 198.202C268.103 198.779 267.867 199.69 268.467 200.009C268.642 200.1 268.855 200.108 269.06 200.108C270.412 200.085 271.764 199.766 272.972 199.166C274.393 198.46 275.608 197.405 276.831 196.395C281.313 192.704 286.403 189.439 292.139 188.566C293.179 188.406 294.182 188.269 295.2 188.178C296.385 188.072 296.841 186.523 295.876 185.832C295.869 185.832 295.861 185.817 295.853 185.817C294.949 185.171 293.84 184.883 292.746 184.7C291.895 184.556 291.022 184.602 290.179 184.792C287.831 185.323 285.962 185.391 283.744 185.779C282.46 186.007 280.47 185.824 279.186 185.779C277.902 185.733 278.001 186.105 277.173 187.123C276.52 187.935 275.851 188.748 275.19 189.553C273.914 191.125 272.638 192.689 271.362 194.261L271.369 194.253Z" fill="white"/>
<path d="M188.573 264.1C186.818 270.934 187.813 278.368 191.3 284.58C194.103 289.561 198.357 293.654 202.551 297.664C210.831 305.576 219.112 313.496 227.384 321.409C252.324 345.253 277.264 369.105 302.204 392.949C298.079 388.241 290.893 385.796 284.443 386.122C295.504 399.95 314.329 407.855 332.576 406.321C317.337 406.769 301.991 403.626 288.302 397.262C307.788 410.042 321.758 430.143 326.438 452.149C320.459 449.362 314.488 446.575 308.509 443.796C310.91 453.387 320.14 460.517 330.198 463.053C340.256 465.59 350.99 464.17 360.995 461.466C347.594 465.218 333.366 466.266 319.517 464.527C311.89 463.57 303.025 461.451 299.72 454.868C306.041 463.183 305.402 475.621 298.254 483.313C295.436 486.351 291.462 489.381 291.949 493.405C301.095 480.982 300.738 462.993 291.105 450.904C293.833 458.27 292.366 466.904 287.33 473.085C290.961 456.781 281.245 438.693 265.193 431.874C260.514 429.884 255.378 428.753 251.116 426.042C244.659 421.919 241.15 414.75 238.992 407.665C236.835 400.581 235.68 393.162 232.436 386.464C229.192 379.766 218.96 373.152 212.533 368.976C205.468 364.382 194.855 369.91 187.555 365.657C182.89 362.939 181.348 357.221 177.558 353.477C172.734 348.716 165.084 347.858 158.125 348.002C151.167 348.146 143.935 348.974 137.447 346.582C131.408 344.357 126.842 339.641 122.504 335.078C118.744 331.121 114.862 326.952 113.442 321.804C112.158 317.134 113.054 312.206 113.966 307.452C115.888 297.39 117.802 287.321 119.724 277.26C114.406 282.712 106.483 285.787 98.6508 285.438C105.169 285.332 111.573 282.347 115.637 277.518C119.701 272.688 121.35 266.12 120.005 260.075C112.522 263.568 103.535 264.062 95.6729 261.419C105.511 265.436 118.364 260.189 122.033 250.651C125.703 241.121 113.009 224.757 104.865 218.166C98.9318 213.359 97.6632 205.279 96.782 197.929C96.1894 192.993 95.7564 187.495 98.947 183.546C102.229 179.484 108.526 178.223 111.33 173.849C114.672 168.64 111.474 162.079 110.441 156.065C108.77 146.36 113.662 135.919 122.375 130.573C118.106 128.211 116.678 122.228 119.458 118.355C117.544 122.212 120.742 127.118 125.08 128.249C129.425 129.381 134.135 127.498 137.394 124.551C140.653 121.605 142.765 117.74 144.899 113.981C147.034 110.222 149.328 106.41 152.83 103.729C156.332 101.049 166.808 97.2824 170.903 99.0593C176.897 92.6274 186.301 89.9317 195.341 89.4381C204.389 88.9445 215.693 85.0338 224.748 85.3527C233.804 85.6717 243.292 84.7832 250.949 80.1966C258.607 75.6101 263.826 66.528 261.25 58.3041C258.675 50.0802 246.612 45.3038 239.737 50.8851C248.374 50.7333 256.7 56.7702 258.789 64.7132C260.878 72.6485 256.518 81.6926 248.822 85.3907C260.392 88.0257 273.496 81.442 277.69 70.8944C275.783 80.1814 271.012 88.9293 264.107 95.7788C267.563 91.4125 273.61 89.0205 279.323 89.7495C285.036 90.4784 290.186 94.3132 292.298 99.401C293.582 102.499 293.779 105.916 295.071 109.015C298.125 116.342 307.605 121.157 315.916 121.461C324.227 121.764 332.287 119.053 340.112 116.373C349.137 124.855 344.867 141.979 332.781 145.73C339.177 144.386 342.74 136.587 339.891 131.006C337.043 125.424 329.005 123.093 323.065 125.705C317.124 128.318 313.812 135.091 314.921 141.212C316.03 147.332 321.12 152.473 327.288 154.554C334.741 157.067 342.93 155.442 350.785 154.592C358.64 153.741 364.482 158.571 370.149 163.795C374.107 167.448 375.679 172.877 376.052 178.102C376.424 183.326 375.763 188.581 376.052 193.805C376.34 199.03 377.715 204.482 381.491 208.302C385.266 212.121 391.921 213.723 396.494 210.785C401.068 207.846 401.189 199.994 396.122 197.891C402.192 202.257 404.387 210.823 401.106 217.338C397.816 223.853 389.407 227.62 382 225.888C386.3 231.599 394.656 234.242 401.713 232.123C408.778 230.004 413.997 223.284 414.028 216.267C411.422 230.209 398.728 241.919 383.952 244.03C387.53 251.168 398.036 254.22 405.231 250.219C412.425 246.217 414.719 236.041 409.88 229.602C415.129 238.57 414.202 250.454 407.624 258.594C401.045 266.735 389.164 270.676 378.65 268.208C388.161 271.572 396.813 278.535 399.32 287.853C401.387 295.522 399.1 303.61 396.228 311.044C393.357 318.478 389.832 325.867 389.331 333.772C388.829 341.669 392.179 350.44 399.715 353.864C397.558 354.388 395.4 354.92 393.243 355.444C390.698 361.283 395.416 376.061 400.224 380.435C405.033 384.808 410.867 388.97 412.318 395.128C413.853 401.651 409.887 408.151 405.55 413.421C401.212 418.691 396.153 423.931 394.945 430.515C393.737 437.098 398.773 445.178 405.778 444.396C394.17 441.609 387.599 427.28 393.372 417.34C396.001 412.814 400.528 409.458 402.967 404.833C408.049 395.212 400.65 381.839 389.399 380.328C393.782 387.649 392.62 396.867 389.612 404.78C386.603 412.692 381.909 419.99 379.303 428.039C371.927 450.843 382.311 475.051 392.506 496.86C390.219 479.076 378.376 463.957 369.876 447.957C361.375 431.957 356.445 411.546 367.384 396.936C360.562 409.047 344.541 415.768 330.487 412.411C343.485 410.483 355.381 402.737 361.945 391.939C353.664 395.652 345.376 399.366 337.096 403.079C344.396 402.418 347.686 393.701 346.645 386.828C345.604 379.956 342.003 373.395 342.444 366.462C343.295 352.983 359.043 342.254 356.445 328.98C355.062 321.918 348.817 316.807 343.424 311.758C338.03 306.708 332.819 300.033 334.346 292.994C335.592 287.245 340.925 283.274 345.171 278.991C349.418 274.708 349.129 269.795 346.022 264.707C343.211 260.105 336.587 259.255 332.249 255.883C326.703 251.578 325.769 244.06 324.736 237.34C322.943 225.615 319.661 214.096 314.989 203.108C312.634 197.564 309.793 191.99 305.03 188.072C300.267 184.154 297.395 181.83 291.303 183.372C277.355 186.895 275.395 179.651 273.869 174.358C272.342 169.065 266.272 166.764 265.512 159.171C264.965 153.703 263.423 148.729 259.435 144.743C257.915 143.224 253.487 139.427 245.882 141.781C251.078 140.187 251.078 141.705 255.257 144.819C258.903 147.537 260.217 152.617 259.055 156.893C257.923 161.061 257.984 161.145 256.221 165.116C254.459 169.088 255.188 174.859 259.534 176.127C250.212 169.475 240.891 162.823 231.563 156.164C237.138 161.251 242.707 166.347 248.283 171.434C230.803 169.954 215.207 156.596 211.895 140.278C206.63 150.37 206.964 162.907 212.761 172.733C218.557 182.559 229.648 189.401 241.484 190.449C225.637 193.995 207.823 187.525 198.562 174.844C203.402 186.272 211.127 196.6 220.912 204.71C211.849 202.432 202.779 200.146 193.716 197.868C199.839 202.082 205.969 206.297 212.092 210.519C198.768 213.708 184.083 211.468 172.498 204.459C176.137 208.658 181.242 212.691 186.279 213.708C174.435 215.91 171.169 213.306 163.61 213.101C168.48 215.91 170.88 218.621 174.519 221.385C166.778 220.74 168.738 219.973 162.524 219.13C171.495 233.292 173.812 247.181 182.777 261.336C184.121 261.943 187.228 263.469 188.58 264.077L188.573 264.1Z" fill="url(#paint47_linear_1_105)"/>
<path d="M284.246 245.214C284.246 244.303 283.744 243.475 283.25 242.701C283.129 242.511 283.007 242.314 282.817 242.192C282.65 242.078 282.453 242.033 282.255 241.995C280.728 241.653 279.201 241.349 277.659 241.083C276.884 242.276 279.596 242.868 280.235 243.156C280.531 243.286 284.238 245.419 284.238 245.214H284.246Z" fill="#A87559"/>
<path d="M194.058 239.079C194.627 239.603 194.605 240.521 195.038 241.159C195.25 241.471 195.562 241.706 195.881 241.919C196.352 242.238 196.891 242.541 197.461 242.496C197.841 241.782 198.418 241.19 199.117 240.787C198.023 240.787 197.096 239.922 196.39 239.177C196.139 238.912 195.661 238.038 195.273 238.016C195.068 238 194.096 239.109 194.058 239.071V239.079Z" fill="white"/>
<path d="M243.436 197.314C244.006 197.837 243.983 198.756 244.416 199.394C244.629 199.705 244.94 199.941 245.259 200.154C245.73 200.472 246.27 200.776 246.839 200.731C247.219 200.017 247.797 199.425 248.495 199.022C247.401 199.022 246.475 198.156 245.768 197.412C245.518 197.146 245.039 196.273 244.651 196.25C244.446 196.235 243.474 197.344 243.436 197.306V197.314Z" fill="white"/>
<path d="M194.111 267.783C195.926 268.421 198.745 269.787 200.188 271.579C202.733 274.723 205.247 274.83 206.265 276.895C207.283 278.961 205.506 280.692 203.227 279.932C200.56 279.044 196.58 278.809 194.111 276.136C195.091 277.396 198.646 278.467 199.026 280.008C201.35 279.849 203.705 280.244 205.855 281.14C206.668 281.482 207.45 281.892 208.301 282.127C210.033 282.613 211.872 282.324 213.665 282.188C223.791 281.413 233.575 285.537 242.897 289.576C250.341 292.804 257.915 296.115 264.084 301.392C268.741 305.371 272.554 310.451 277.933 313.39C280.363 314.719 283.144 315.638 284.952 317.734C287.056 320.179 287.368 323.664 287.292 326.884C286.897 344.57 281.359 367.472 278.525 384.93C273.428 416.299 268.315 447.699 260.848 478.582C256.707 495.676 251.853 512.602 246.292 529.285C240.899 545.46 234.586 561.847 223.069 574.422C211.553 586.997 184.227 592.146 177.208 590.604C162.979 587.468 152.975 574.961 147.642 561.71C142.309 548.459 141.39 533.887 141.177 519.611C141.093 514.083 141.116 508.501 142.37 503.118C146.039 487.384 159.341 476.107 170.926 464.838C204.29 432.352 228.638 390.709 240.58 345.709C241.734 341.35 242.927 336.695 246.232 333.612C242.813 335.609 238.339 334.721 234.981 332.625C231.623 330.529 229.055 327.416 226.237 324.629C214.325 312.859 197.947 307.019 183.711 298.188C182.389 297.368 180.984 296.388 180.581 294.884C180.102 293.1 181.204 291.331 181.834 289.592C183.065 286.22 182.533 282.507 182.321 278.93C182.108 275.354 182.343 271.428 184.706 268.724C187.068 266.021 191.087 266.249 194.126 267.767L194.111 267.783Z" fill="#CA9A7E" stroke="#794D36" stroke-miterlimit="10"/>
<defs>
<linearGradient id="paint0_linear_1_105" x1="63.2803" y1="287.404" x2="533.576" y2="287.404" gradientUnits="userSpaceOnUse">
<stop stop-color="#DEE1AB"/>
<stop offset="0.5" stop-color="#C15544"/>
<stop offset="1" stop-color="#5146CF"/>
</linearGradient>
<linearGradient id="paint1_linear_1_105" x1="63.4094" y1="294.834" x2="534.123" y2="294.834" gradientUnits="userSpaceOnUse">
<stop stop-color="#DEE1AB"/>
<stop offset="0.5" stop-color="#C15544"/>
<stop offset="1" stop-color="#5146CF"/>
</linearGradient>
<linearGradient id="paint2_linear_1_105" x1="63.531" y1="302.289" x2="534.648" y2="302.289" gradientUnits="userSpaceOnUse">
<stop stop-color="#DEE1AB"/>
<stop offset="0.5" stop-color="#C15544"/>
<stop offset="1" stop-color="#5146CF"/>
</linearGradient>
<linearGradient id="paint3_linear_1_105" x1="63.6526" y1="309.753" x2="535.187" y2="309.753" gradientUnits="userSpaceOnUse">
<stop stop-color="#DEE1AB"/>
<stop offset="0.5" stop-color="#C15544"/>
<stop offset="1" stop-color="#5146CF"/>
</linearGradient>
<linearGradient id="paint4_linear_1_105" x1="63.7742" y1="317.196" x2="535.726" y2="317.196" gradientUnits="userSpaceOnUse">
<stop stop-color="#DEE1AB"/>
<stop offset="0.5" stop-color="#C15544"/>
<stop offset="1" stop-color="#5146CF"/>
</linearGradient>
<linearGradient id="paint5_linear_1_105" x1="63.8955" y1="324.649" x2="536.25" y2="324.649" gradientUnits="userSpaceOnUse">
<stop stop-color="#DEE1AB"/>
<stop offset="0.5" stop-color="#C15544"/>
<stop offset="1" stop-color="#5146CF"/>
</linearGradient>
<linearGradient id="paint6_linear_1_105" x1="64.0247" y1="332.099" x2="536.79" y2="332.099" gradientUnits="userSpaceOnUse">
<stop stop-color="#DEE1AB"/>
<stop offset="0.5" stop-color="#C15544"/>
<stop offset="1" stop-color="#5146CF"/>
</linearGradient>
<linearGradient id="paint7_linear_1_105" x1="64.1462" y1="339.555" x2="537.322" y2="339.555" gradientUnits="userSpaceOnUse">
<stop stop-color="#DEE1AB"/>
<stop offset="0.5" stop-color="#C15544"/>
<stop offset="1" stop-color="#5146CF"/>
</linearGradient>
<linearGradient id="paint8_linear_1_105" x1="64.2678" y1="347.02" x2="537.853" y2="347.02" gradientUnits="userSpaceOnUse">
<stop stop-color="#DEE1AB"/>
<stop offset="0.5" stop-color="#C15544"/>
<stop offset="1" stop-color="#5146CF"/>
</linearGradient>
<linearGradient id="paint9_linear_1_105" x1="64.3894" y1="354.489" x2="538.385" y2="354.489" gradientUnits="userSpaceOnUse">
<stop stop-color="#DEE1AB"/>
<stop offset="0.5" stop-color="#C15544"/>
<stop offset="1" stop-color="#5146CF"/>
</linearGradient>
<linearGradient id="paint10_linear_1_105" x1="64.5186" y1="361.895" x2="538.932" y2="361.895" gradientUnits="userSpaceOnUse">
<stop stop-color="#DEE1AB"/>
<stop offset="0.5" stop-color="#C15544"/>
<stop offset="1" stop-color="#5146CF"/>
</linearGradient>
<linearGradient id="paint11_linear_1_105" x1="64.6401" y1="369.142" x2="539.449" y2="369.143" gradientUnits="userSpaceOnUse">
<stop stop-color="#DEE1AB"/>
<stop offset="0.5" stop-color="#C15544"/>
<stop offset="1" stop-color="#5146CF"/>
</linearGradient>
<linearGradient id="paint12_linear_1_105" x1="64.7617" y1="376.399" x2="539.988" y2="376.399" gradientUnits="userSpaceOnUse">
<stop stop-color="#DEE1AB"/>
<stop offset="0.5" stop-color="#C15544"/>
<stop offset="1" stop-color="#5146CF"/>
</linearGradient>
<linearGradient id="paint13_linear_1_105" x1="64.8831" y1="383.667" x2="540.527" y2="383.667" gradientUnits="userSpaceOnUse">
<stop stop-color="#DEE1AB"/>
<stop offset="0.5" stop-color="#C15544"/>
<stop offset="1" stop-color="#5146CF"/>
</linearGradient>
<linearGradient id="paint14_linear_1_105" x1="65.0046" y1="390.938" x2="541.059" y2="390.938" gradientUnits="userSpaceOnUse">
<stop stop-color="#DEE1AB"/>
<stop offset="0.5" stop-color="#C15544"/>
<stop offset="1" stop-color="#5146CF"/>
</linearGradient>
<linearGradient id="paint15_linear_1_105" x1="65.1338" y1="398.215" x2="541.583" y2="398.216" gradientUnits="userSpaceOnUse">
<stop stop-color="#DEE1AB"/>
<stop offset="0.5" stop-color="#C15544"/>
<stop offset="1" stop-color="#5146CF"/>
</linearGradient>
<linearGradient id="paint16_linear_1_105" x1="65.2554" y1="405.493" x2="542.13" y2="405.493" gradientUnits="userSpaceOnUse">
<stop stop-color="#DEE1AB"/>
<stop offset="0.5" stop-color="#C15544"/>
<stop offset="1" stop-color="#5146CF"/>
</linearGradient>
<linearGradient id="paint17_linear_1_105" x1="65.377" y1="412.779" x2="542.662" y2="412.779" gradientUnits="userSpaceOnUse">
<stop stop-color="#DEE1AB"/>
<stop offset="0.5" stop-color="#C15544"/>
<stop offset="1" stop-color="#5146CF"/>
</linearGradient>
<linearGradient id="paint18_linear_1_105" x1="65.4985" y1="420.08" x2="543.194" y2="420.081" gradientUnits="userSpaceOnUse">
<stop stop-color="#DEE1AB"/>
<stop offset="0.5" stop-color="#C15544"/>
<stop offset="1" stop-color="#5146CF"/>
</linearGradient>
<linearGradient id="paint19_linear_1_105" x1="65.6201" y1="427.383" x2="543.733" y2="427.383" gradientUnits="userSpaceOnUse">
<stop stop-color="#DEE1AB"/>
<stop offset="0.5" stop-color="#C15544"/>
<stop offset="1" stop-color="#5146CF"/>
</linearGradient>
<linearGradient id="paint20_linear_1_105" x1="65.7493" y1="434.701" x2="544.25" y2="434.702" gradientUnits="userSpaceOnUse">
<stop stop-color="#DEE1AB"/>
<stop offset="0.5" stop-color="#C15544"/>
<stop offset="1" stop-color="#5146CF"/>
</linearGradient>
<linearGradient id="paint21_linear_1_105" x1="65.8708" y1="442.015" x2="544.797" y2="442.015" gradientUnits="userSpaceOnUse">
<stop stop-color="#DEE1AB"/>
<stop offset="0.5" stop-color="#C15544"/>
<stop offset="1" stop-color="#5146CF"/>
</linearGradient>
<linearGradient id="paint22_linear_1_105" x1="65.9922" y1="449.348" x2="545.336" y2="449.348" gradientUnits="userSpaceOnUse">
<stop stop-color="#DEE1AB"/>
<stop offset="0.5" stop-color="#C15544"/>
<stop offset="1" stop-color="#5146CF"/>
</linearGradient>
<linearGradient id="paint23_linear_1_105" x1="66.1138" y1="456.602" x2="545.875" y2="456.602" gradientUnits="userSpaceOnUse">
<stop stop-color="#DEE1AB"/>
<stop offset="0.5" stop-color="#C15544"/>
<stop offset="1" stop-color="#5146CF"/>
</linearGradient>
<linearGradient id="paint24_linear_1_105" x1="66.2354" y1="463.874" x2="546.392" y2="463.874" gradientUnits="userSpaceOnUse">
<stop stop-color="#DEE1AB"/>
<stop offset="0.5" stop-color="#C15544"/>
<stop offset="1" stop-color="#5146CF"/>
</linearGradient>
<linearGradient id="paint25_linear_1_105" x1="66.3645" y1="471.158" x2="546.924" y2="471.158" gradientUnits="userSpaceOnUse">
<stop stop-color="#DEE1AB"/>
<stop offset="0.5" stop-color="#C15544"/>
<stop offset="1" stop-color="#5146CF"/>
</linearGradient>
<linearGradient id="paint26_linear_1_105" x1="66.4861" y1="478.437" x2="547.471" y2="478.437" gradientUnits="userSpaceOnUse">
<stop stop-color="#DEE1AB"/>
<stop offset="0.5" stop-color="#C15544"/>
<stop offset="1" stop-color="#5146CF"/>
</linearGradient>
<linearGradient id="paint27_linear_1_105" x1="66.6077" y1="485.737" x2="548.003" y2="485.738" gradientUnits="userSpaceOnUse">
<stop stop-color="#DEE1AB"/>
<stop offset="0.5" stop-color="#C15544"/>
<stop offset="1" stop-color="#5146CF"/>
</linearGradient>
<linearGradient id="paint28_linear_1_105" x1="66.7292" y1="493.038" x2="548.534" y2="493.038" gradientUnits="userSpaceOnUse">
<stop stop-color="#DEE1AB"/>
<stop offset="0.5" stop-color="#C15544"/>
<stop offset="1" stop-color="#5146CF"/>
</linearGradient>
<linearGradient id="paint29_linear_1_105" x1="66.8584" y1="500.343" x2="549.066" y2="500.343" gradientUnits="userSpaceOnUse">
<stop stop-color="#DEE1AB"/>
<stop offset="0.5" stop-color="#C15544"/>
<stop offset="1" stop-color="#5146CF"/>
</linearGradient>
<linearGradient id="paint30_linear_1_105" x1="66.98" y1="507.658" x2="549.59" y2="507.659" gradientUnits="userSpaceOnUse">
<stop stop-color="#DEE1AB"/>
<stop offset="0.5" stop-color="#C15544"/>
<stop offset="1" stop-color="#5146CF"/>
</linearGradient>
<linearGradient id="paint31_linear_1_105" x1="67.1013" y1="514.982" x2="550.137" y2="514.982" gradientUnits="userSpaceOnUse">
<stop stop-color="#DEE1AB"/>
<stop offset="0.5" stop-color="#C15544"/>
<stop offset="1" stop-color="#5146CF"/>
</linearGradient>
<linearGradient id="paint32_linear_1_105" x1="67.2229" y1="522.318" x2="550.669" y2="522.318" gradientUnits="userSpaceOnUse">
<stop stop-color="#DEE1AB"/>
<stop offset="0.5" stop-color="#C15544"/>
<stop offset="1" stop-color="#5146CF"/>
</linearGradient>
<linearGradient id="paint33_linear_1_105" x1="67.3445" y1="529.648" x2="551.208" y2="529.649" gradientUnits="userSpaceOnUse">
<stop stop-color="#DEE1AB"/>
<stop offset="0.5" stop-color="#C15544"/>
<stop offset="1" stop-color="#5146CF"/>
</linearGradient>
<linearGradient id="paint34_linear_1_105" x1="67.4736" y1="537" x2="551.725" y2="537" gradientUnits="userSpaceOnUse">
<stop stop-color="#DEE1AB"/>
<stop offset="0.5" stop-color="#C15544"/>
<stop offset="1" stop-color="#5146CF"/>
</linearGradient>
<linearGradient id="paint35_linear_1_105" x1="67.5952" y1="544.338" x2="552.272" y2="544.338" gradientUnits="userSpaceOnUse">
<stop stop-color="#DEE1AB"/>
<stop offset="0.5" stop-color="#C15544"/>
<stop offset="1" stop-color="#5146CF"/>
</linearGradient>
<linearGradient id="paint36_linear_1_105" x1="67.7168" y1="551.698" x2="552.811" y2="551.699" gradientUnits="userSpaceOnUse">
<stop stop-color="#DEE1AB"/>
<stop offset="0.5" stop-color="#C15544"/>
<stop offset="1" stop-color="#5146CF"/>
</linearGradient>
<linearGradient id="paint37_linear_1_105" x1="67.8384" y1="559.065" x2="553.336" y2="559.065" gradientUnits="userSpaceOnUse">
<stop stop-color="#DEE1AB"/>
<stop offset="0.5" stop-color="#C15544"/>
<stop offset="1" stop-color="#5146CF"/>
</linearGradient>
<linearGradient id="paint38_linear_1_105" x1="67.9597" y1="566.435" x2="553.875" y2="566.436" gradientUnits="userSpaceOnUse">
<stop stop-color="#DEE1AB"/>
<stop offset="0.5" stop-color="#C15544"/>
<stop offset="1" stop-color="#5146CF"/>
</linearGradient>
<linearGradient id="paint39_linear_1_105" x1="68.0889" y1="573.822" x2="554.399" y2="573.823" gradientUnits="userSpaceOnUse">
<stop stop-color="#DEE1AB"/>
<stop offset="0.5" stop-color="#C15544"/>
<stop offset="1" stop-color="#5146CF"/>
</linearGradient>
<linearGradient id="paint40_linear_1_105" x1="68.2104" y1="581.196" x2="554.938" y2="581.196" gradientUnits="userSpaceOnUse">
<stop stop-color="#DEE1AB"/>
<stop offset="0.5" stop-color="#C15544"/>
<stop offset="1" stop-color="#5146CF"/>
</linearGradient>
<linearGradient id="paint41_linear_1_105" x1="68.332" y1="588.583" x2="555.478" y2="588.583" gradientUnits="userSpaceOnUse">
<stop stop-color="#DEE1AB"/>
<stop offset="0.5" stop-color="#C15544"/>
<stop offset="1" stop-color="#5146CF"/>
</linearGradient>
<linearGradient id="paint42_linear_1_105" x1="68.4536" y1="595.986" x2="556.009" y2="595.986" gradientUnits="userSpaceOnUse">
<stop stop-color="#DEE1AB"/>
<stop offset="0.5" stop-color="#C15544"/>
<stop offset="1" stop-color="#5146CF"/>
</linearGradient>
<linearGradient id="paint43_linear_1_105" x1="68.5828" y1="603.375" x2="556.541" y2="603.375" gradientUnits="userSpaceOnUse">
<stop stop-color="#DEE1AB"/>
<stop offset="0.5" stop-color="#C15544"/>
<stop offset="1" stop-color="#5146CF"/>
</linearGradient>
<linearGradient id="paint44_linear_1_105" x1="68.7043" y1="610.782" x2="557.073" y2="610.782" gradientUnits="userSpaceOnUse">
<stop stop-color="#DEE1AB"/>
<stop offset="0.5" stop-color="#C15544"/>
<stop offset="1" stop-color="#5146CF"/>
</linearGradient>
<linearGradient id="paint45_linear_1_105" x1="68.8259" y1="618.179" x2="557.605" y2="618.179" gradientUnits="userSpaceOnUse">
<stop stop-color="#DEE1AB"/>
<stop offset="0.5" stop-color="#C15544"/>
<stop offset="1" stop-color="#5146CF"/>
</linearGradient>
<linearGradient id="paint46_linear_1_105" x1="105.094" y1="455.208" x2="500.762" y2="455.208" gradientUnits="userSpaceOnUse">
<stop stop-color="#DEE1AB"/>
<stop offset="0.5" stop-color="#C15544"/>
<stop offset="1" stop-color="#5146CF"/>
</linearGradient>
<linearGradient id="paint47_linear_1_105" x1="175.5" y1="138.5" x2="340" y2="486.5" gradientUnits="userSpaceOnUse">
<stop stop-color="#1A0706"/>
<stop offset="0.46354" stop-color="#6A2815"/>
<stop offset="0.890641" stop-color="#B47A59"/>
<stop offset="1" stop-color="#E1C98D"/>
</linearGradient>
</defs>
</svg>
